<?xml version="1.0" encoding="UTF-8" standalone="no"?>
<!-- Created with Inkscape (http://www.inkscape.org/) -->

<svg
   xmlns:dc="http://purl.org/dc/elements/1.1/"
   xmlns:cc="http://creativecommons.org/ns#"
   xmlns:rdf="http://www.w3.org/1999/02/22-rdf-syntax-ns#"
   xmlns:svg="http://www.w3.org/2000/svg"
   xmlns="http://www.w3.org/2000/svg"
   xmlns:xlink="http://www.w3.org/1999/xlink"
   xmlns:sodipodi="http://sodipodi.sourceforge.net/DTD/sodipodi-0.dtd"
   xmlns:inkscape="http://www.inkscape.org/namespaces/inkscape"
   width="491.48737"
   height="491.48737"
   id="svg2"
   version="1.1"
   inkscape:version="0.48.5 r10040"
   sodipodi:docname="New document 1">
  <defs
     id="defs4" />
  <sodipodi:namedview
     id="base"
     pagecolor="#ffffff"
     bordercolor="#666666"
     borderopacity="1.0"
     inkscape:pageopacity="0.0"
     inkscape:pageshadow="2"
     inkscape:zoom="0.70710678"
     inkscape:cx="501.96995"
     inkscape:cy="134.70082"
     inkscape:document-units="px"
     inkscape:current-layer="layer1"
     showgrid="false"
     showguides="true"
     inkscape:guide-bbox="true"
     fit-margin-top="0"
     fit-margin-left="0"
     fit-margin-right="0"
     fit-margin-bottom="0"
     inkscape:window-width="1437"
     inkscape:window-height="845"
     inkscape:window-x="780"
     inkscape:window-y="385"
     inkscape:window-maximized="0" />
  <metadata
     id="metadata7">
    <rdf:RDF>
      <cc:Work
         rdf:about="">
        <dc:format>image/svg+xml</dc:format>
        <dc:type
           rdf:resource="http://purl.org/dc/dcmitype/StillImage" />
        <dc:title></dc:title>
      </cc:Work>
    </rdf:RDF>
  </metadata>
  <g
     inkscape:label="Layer 1"
     inkscape:groupmode="layer"
     id="layer1"
     transform="translate(666.13226,-289.47685)">
    <g
       id="g3922"
       style="fill:#cacaca;fill-opacity:1;stroke:none"
       transform="matrix(1.0165464,0,0,1.0165464,6.9559388,-8.8560004)"
       inkscape:export-filename="/home/max/espel.png"
       inkscape:export-xdpi="54.939999"
       inkscape:export-ydpi="54.939999">
      <path
         sodipodi:type="arc"
         style="fill:#cacaca;fill-opacity:1;stroke:none"
         id="path3924"
         sodipodi:cx="-460.62955"
         sodipodi:cy="179.59038"
         sodipodi:rx="76.771591"
         sodipodi:ry="76.771591"
         d="m -383.85796,179.59038 c 0,42.39978 -34.37181,76.77159 -76.77159,76.77159 -42.39978,0 -76.77159,-34.37181 -76.77159,-76.77159 0,-42.39978 34.37181,-76.77159 76.77159,-76.77159 42.39978,0 76.77159,34.37181 76.77159,76.77159 z"
         transform="matrix(3.1488692,0,0,3.1488692,1030.0736,-30.286045)" />
      <path
         transform="matrix(3.0839093,0,0,3.0839093,1000.1512,-18.619909)"
         d="m -383.85796,179.59038 c 0,42.39978 -34.37181,76.77159 -76.77159,76.77159 -42.39978,0 -76.77159,-34.37181 -76.77159,-76.77159 0,-42.39978 34.37181,-76.77159 76.77159,-76.77159 42.39978,0 76.77159,34.37181 76.77159,76.77159 z"
         sodipodi:ry="76.771591"
         sodipodi:rx="76.771591"
         sodipodi:cy="179.59038"
         sodipodi:cx="-460.62955"
         id="path3926"
         style="fill:#cacaca;fill-opacity:1;stroke:none"
         sodipodi:type="arc" />
      <path
         transform="matrix(-1.413031,0.28111488,0.28111488,1.413031,-821.15365,-171.26399)"
         d="m -22.857132,535.2193 c 0,85.20965 -69.07607,154.28572 -154.285718,154.28572 -85.20965,0 -154.28572,-69.07607 -154.28572,-154.28572 0,-85.20965 69.07607,-154.28572 154.28572,-154.28572 85.209648,0 154.285718,69.07607 154.285718,154.28572 z"
         sodipodi:ry="154.28572"
         sodipodi:rx="154.28572"
         sodipodi:cy="535.2193"
         sodipodi:cx="-177.14285"
         id="path3928"
         style="fill:#cacaca;fill-opacity:1;stroke:none"
         sodipodi:type="arc" />
      <path
         sodipodi:type="arc"
         style="fill:#cacaca;fill-opacity:1;stroke:none"
         id="path3930"
         sodipodi:cx="-177.14285"
         sodipodi:cy="535.2193"
         sodipodi:rx="154.28572"
         sodipodi:ry="154.28572"
         d="m -22.857132,535.2193 c 0,85.20965 -69.07607,154.28572 -154.285718,154.28572 -85.20965,0 -154.28572,-69.07607 -154.28572,-154.28572 0,-85.20965 69.07607,-154.28572 154.28572,-154.28572 85.209648,0 154.285718,69.07607 154.285718,154.28572 z"
         transform="matrix(-0.97133073,-0.77048017,0.77048017,-0.97133073,-1004.8276,918.60923)" />
      <text
         xml:space="preserve"
         style="font-size:40px;font-style:normal;font-variant:normal;font-weight:normal;font-stretch:normal;text-align:start;line-height:125%;letter-spacing:0px;word-spacing:0px;writing-mode:lr-tb;text-anchor:start;fill:#cacaca;fill-opacity:1;stroke:none;font-family:Keifont;-inkscape-font-specification:Keifont"
         id="text3932"
         sodipodi:linespacing="125%"><textPath
           xlink:href="#path2985"
           id="textPath3934">École Supérieure</textPath></text>
      <text
         xml:space="preserve"
         style="font-size:40px;font-style:normal;font-variant:normal;font-weight:normal;font-stretch:normal;text-align:start;line-height:125%;letter-spacing:0px;word-spacing:0px;writing-mode:lr-tb;text-anchor:start;fill:#cacaca;fill-opacity:1;stroke:none;font-family:Keifont;-inkscape-font-specification:Keifont"
         id="text3936"
         sodipodi:linespacing="125%"
         transform="translate(0,-2)"><textPath
           xlink:href="#path2994"
           id="textPath3938"><tspan
   id="tspan3940"
   style="fill:#cacaca;fill-opacity:1;stroke:none">de la Programmation en Ligne</tspan></textPath></text>
      <path
         sodipodi:type="star"
         style="fill:#cacaca;fill-opacity:1;stroke:none"
         id="path3942"
         sodipodi:sides="5"
         sodipodi:cx="-441.42856"
         sodipodi:cy="419.50504"
         sodipodi:r1="21.092604"
         sodipodi:r2="9.9135237"
         sodipodi:arg1="0.52359878"
         sodipodi:arg2="1.1519173"
         inkscape:flatsided="false"
         inkscape:rounded="-0.01"
         inkscape:randomized="0"
         d="m -423.16183,430.05134 c 0.0716,-0.12395 -14.36528,-1.43164 -14.23453,-1.48985 0.13074,-0.0582 -8.55759,11.54547 -8.4176,11.57523 0.14,0.0297 -3.07755,-14.1046 -2.98178,-13.99824 0.0958,0.10636 -13.62483,-4.57101 -13.60987,-4.42867 0.015,0.14234 12.46325,-7.28548 12.39169,-7.16154 -0.0716,0.12395 0.13698,-14.3705 0.006,-14.31229 -0.13075,0.0582 10.78026,9.60192 10.64027,9.57217 -0.14,-0.0298 13.70949,-4.31046 13.61372,-4.41682 -0.0958,-0.10636 -5.80068,13.2198 -5.81564,13.07746 -0.015,-0.14234 8.33595,11.7065 8.40751,11.58255 z"
         transform="matrix(0.7013905,-0.47949816,0.47949816,0.7013905,-490.94266,-73.41374)" />
      <path
         transform="matrix(-0.7013905,-0.47949816,-0.47949816,0.7013905,-350.96876,-73.41374)"
         d="m -423.16183,430.05134 c 0.0716,-0.12395 -14.36528,-1.43164 -14.23453,-1.48985 0.13074,-0.0582 -8.55759,11.54547 -8.4176,11.57523 0.14,0.0297 -3.07755,-14.1046 -2.98178,-13.99824 0.0958,0.10636 -13.62483,-4.57101 -13.60987,-4.42867 0.015,0.14234 12.46325,-7.28548 12.39169,-7.16154 -0.0716,0.12395 0.13698,-14.3705 0.006,-14.31229 -0.13075,0.0582 10.78026,9.60192 10.64027,9.57217 -0.14,-0.0298 13.70949,-4.31046 13.61372,-4.41682 -0.0958,-0.10636 -5.80068,13.2198 -5.81564,13.07746 -0.015,-0.14234 8.33595,11.7065 8.40751,11.58255 z"
         inkscape:randomized="0"
         inkscape:rounded="-0.01"
         inkscape:flatsided="false"
         sodipodi:arg2="1.1519173"
         sodipodi:arg1="0.52359878"
         sodipodi:r2="9.9135237"
         sodipodi:r1="21.092604"
         sodipodi:cy="419.50504"
         sodipodi:cx="-441.42856"
         sodipodi:sides="5"
         id="path3944"
         style="fill:#cacaca;fill-opacity:1;stroke:none"
         sodipodi:type="star" />
      <path
         transform="matrix(0.34749691,-0.77531479,0.77531479,0.34749691,-799.06901,56.521507)"
         d="m -423.16183,430.05134 c 0.0716,-0.12395 -14.36528,-1.43164 -14.23453,-1.48985 0.13074,-0.0582 -8.55759,11.54547 -8.4176,11.57523 0.14,0.0297 -3.07755,-14.1046 -2.98178,-13.99824 0.0958,0.10636 -13.62483,-4.57101 -13.60987,-4.42867 0.015,0.14234 12.46325,-7.28548 12.39169,-7.16154 -0.0716,0.12395 0.13698,-14.3705 0.006,-14.31229 -0.13075,0.0582 10.78026,9.60192 10.64027,9.57217 -0.14,-0.0298 13.70949,-4.31046 13.61372,-4.41682 -0.0958,-0.10636 -5.80068,13.2198 -5.81564,13.07746 -0.015,-0.14234 8.33595,11.7065 8.40751,11.58255 z"
         inkscape:randomized="0"
         inkscape:rounded="-0.01"
         inkscape:flatsided="false"
         sodipodi:arg2="1.1519173"
         sodipodi:arg1="0.52359878"
         sodipodi:r2="9.9135237"
         sodipodi:r1="21.092604"
         sodipodi:cy="419.50504"
         sodipodi:cx="-441.42856"
         sodipodi:sides="5"
         id="path3946"
         style="fill:#cacaca;fill-opacity:1;stroke:none"
         sodipodi:type="star" />
      <path
         sodipodi:type="star"
         style="fill:#cacaca;fill-opacity:1;stroke:none"
         id="path3948"
         sodipodi:sides="5"
         sodipodi:cx="-441.42856"
         sodipodi:cy="419.50504"
         sodipodi:r1="21.092604"
         sodipodi:r2="9.9135237"
         sodipodi:arg1="0.52359878"
         sodipodi:arg2="1.1519173"
         inkscape:flatsided="false"
         inkscape:rounded="-0.01"
         inkscape:randomized="0"
         d="m -423.16183,430.05134 c 0.0716,-0.12395 -14.36528,-1.43164 -14.23453,-1.48985 0.13074,-0.0582 -8.55759,11.54547 -8.4176,11.57523 0.14,0.0297 -3.07755,-14.1046 -2.98178,-13.99824 0.0958,0.10636 -13.62483,-4.57101 -13.60987,-4.42867 0.015,0.14234 12.46325,-7.28548 12.39169,-7.16154 -0.0716,0.12395 0.13698,-14.3705 0.006,-14.31229 -0.13075,0.0582 10.78026,9.60192 10.64027,9.57217 -0.14,-0.0298 13.70949,-4.31046 13.61372,-4.41682 -0.0958,-0.10636 -5.80068,13.2198 -5.81564,13.07746 -0.015,-0.14234 8.33595,11.7065 8.40751,11.58255 z"
         transform="matrix(-0.34749691,-0.77531479,-0.77531479,0.34749691,-42.575523,56.521507)" />
      <path
         sodipodi:type="star"
         style="fill:#cacaca;fill-opacity:1;stroke:none"
         id="path3950"
         sodipodi:sides="5"
         sodipodi:cx="-441.42856"
         sodipodi:cy="419.50504"
         sodipodi:r1="21.092604"
         sodipodi:r2="9.9135237"
         sodipodi:arg1="0.52359878"
         sodipodi:arg2="1.1519173"
         inkscape:flatsided="false"
         inkscape:rounded="-0.01"
         inkscape:randomized="0"
         d="m -423.16183,430.05134 c 0.0716,-0.12395 -14.36528,-1.43164 -14.23453,-1.48985 0.13074,-0.0582 -8.55759,11.54547 -8.4176,11.57523 0.14,0.0297 -3.07755,-14.1046 -2.98178,-13.99824 0.0958,0.10636 -13.62483,-4.57101 -13.60987,-4.42867 0.015,0.14234 12.46325,-7.28548 12.39169,-7.16154 -0.0716,0.12395 0.13698,-14.3705 0.006,-14.31229 -0.13075,0.0582 10.78026,9.60192 10.64027,9.57217 -0.14,-0.0298 13.70949,-4.31046 13.61372,-4.41682 -0.0958,-0.10636 -5.80068,13.2198 -5.81564,13.07746 -0.015,-0.14234 8.33595,11.7065 8.40751,11.58255 z"
         transform="matrix(0.52152914,-0.67072683,0.67072683,0.52152914,-673.37202,-27.493971)" />
      <path
         transform="matrix(-0.52152914,-0.67072683,-0.67072683,0.52152914,-169.00217,-27.493971)"
         d="m -423.16183,430.05134 c 0.0716,-0.12395 -14.36528,-1.43164 -14.23453,-1.48985 0.13074,-0.0582 -8.55759,11.54547 -8.4176,11.57523 0.14,0.0297 -3.07755,-14.1046 -2.98178,-13.99824 0.0958,0.10636 -13.62483,-4.57101 -13.60987,-4.42867 0.015,0.14234 12.46325,-7.28548 12.39169,-7.16154 -0.0716,0.12395 0.13698,-14.3705 0.006,-14.31229 -0.13075,0.0582 10.78026,9.60192 10.64027,9.57217 -0.14,-0.0298 13.70949,-4.31046 13.61372,-4.41682 -0.0958,-0.10636 -5.80068,13.2198 -5.81564,13.07746 -0.015,-0.14234 8.33595,11.7065 8.40751,11.58255 z"
         inkscape:randomized="0"
         inkscape:rounded="-0.01"
         inkscape:flatsided="false"
         sodipodi:arg2="1.1519173"
         sodipodi:arg1="0.52359878"
         sodipodi:r2="9.9135237"
         sodipodi:r1="21.092604"
         sodipodi:cy="419.50504"
         sodipodi:cx="-441.42856"
         sodipodi:sides="5"
         id="path3952"
         style="fill:#cacaca;fill-opacity:1;stroke:none"
         sodipodi:type="star" />
      <path
         sodipodi:type="arc"
         style="fill:#cacaca;fill-opacity:1;stroke:none"
         id="path3954"
         sodipodi:cx="-460.62955"
         sodipodi:cy="179.59038"
         sodipodi:rx="76.771591"
         sodipodi:ry="76.771591"
         d="m -383.85796,179.59038 c 0,42.39978 -34.37181,76.77159 -76.77159,76.77159 -42.39978,0 -76.77159,-34.37181 -76.77159,-76.77159 0,-42.39978 34.37181,-76.77159 76.77159,-76.77159 42.39978,0 76.77159,34.37181 76.77159,76.77159 z"
         transform="matrix(2.3023673,0,0,2.3023673,640.15116,121.73699)" />
      <text
         xml:space="preserve"
         style="font-size:64.79878235px;font-style:normal;font-variant:normal;font-weight:normal;font-stretch:normal;text-align:start;line-height:125%;letter-spacing:0px;word-spacing:0px;writing-mode:lr-tb;text-anchor:start;fill:#cacaca;fill-opacity:1;stroke:none;font-family:Keifont;-inkscape-font-specification:Keifont"
         id="text3956"
         sodipodi:linespacing="125%"
         y="559.32971"
         x="-524.95758"><tspan
           sodipodi:role="line"
           id="tspan3958"
           x="-524.95758"
           y="559.32971">ESPEL</tspan></text>
      <path
         style="fill:#cacaca;fill-opacity:1;stroke:none"
         d="m -519.56562,573.19902 197.43257,0"
         id="path3960"
         inkscape:connector-curvature="0"
         sodipodi:nodetypes="cc" />
      <text
         x="-458.38815"
         y="615.0451"
         sodipodi:linespacing="125%"
         id="text3962"
         style="font-size:31.4194622px;font-style:normal;font-variant:normal;font-weight:normal;font-stretch:normal;text-align:start;line-height:125%;letter-spacing:0px;word-spacing:0px;writing-mode:lr-tb;text-anchor:start;fill:#cacaca;fill-opacity:1;stroke:none;font-family:Keifont;-inkscape-font-specification:Keifont"
         xml:space="preserve"><tspan
           y="615.0451"
           x="-458.38815"
           id="tspan3964"
           sodipodi:role="line">2012</tspan></text>
      <path
         sodipodi:nodetypes="cc"
         inkscape:connector-curvature="0"
         id="path3966"
         d="m -519.56562,498.19902 197.43257,0"
         style="fill:#cacaca;fill-opacity:1;stroke:none" />
      <path
         transform="matrix(2.2504331,0,0,2.2504331,616.2288,131.06385)"
         d="m -383.85796,179.59038 c 0,42.39978 -34.37181,76.77159 -76.77159,76.77159 -42.39978,0 -76.77159,-34.37181 -76.77159,-76.77159 0,-42.39978 34.37181,-76.77159 76.77159,-76.77159 42.39978,0 76.77159,34.37181 76.77159,76.77159 z"
         sodipodi:ry="76.771591"
         sodipodi:rx="76.771591"
         sodipodi:cy="179.59038"
         sodipodi:cx="-460.62955"
         id="path3968"
         style="fill:#cacaca;fill-opacity:1;stroke:none"
         sodipodi:type="arc" />
      <g
         id="g3970"
         transform="matrix(0.46151953,0,0,0.46151953,-591.63259,306.95887)"
         style="fill:#cacaca;fill-opacity:1;stroke:none">
        <title
           id="title3972">Layer 1</title>
        <g
           id="g3974"
           display="inline"
           style="fill:#cacaca;fill-opacity:1;stroke:none;display:inline" />
        <g
           id="g3976"
           display="inline"
           style="fill:#cacaca;fill-opacity:1;stroke:none;display:inline">
          <g
             id="g3978"
             style="fill:#cacaca;fill-opacity:1;stroke:none">
            <path
               id="path3980"
               d="M 209.27003,228.48717 C 126.4415,284.23868 71.502114,381.4379 71.502114,492.04376 c 0,172.91974 134.165746,313.24481 299.495476,313.24481 165.32974,0 299.52719,-140.32507 299.52719,-313.24481 0,-114.14724 -58.51019,-214.06506 -145.81787,-268.82707 -19.97232,-9.62544 -109.79462,-64.7486 0,9.94428 27.8714,18.10281 52.91516,40.93635 73.36847,67.65425 50.72357,64.73883 73.04718,152.25247 61.4837,235.08279 -11.21167,85.65808 -60.05896,164.25775 -128.95733,211.31598 -67.71393,47.29217 -154.87152,61.45325 -233.51139,39.8103 C 213.16785,764.93329 141.19046,700.4173 105.47663,618.10406 67.1747,532.0766 71.757769,426.94898 115.87182,344.3049 c 22.15823,-42.64279 54.81576,-78.76581 93.39822,-105.64142 109.04759,-81.63547 27.96579,-29.22285 0,-10.17631 z"
               stroke-miterlimit="4"
               inkscape:connector-curvature="0"
               style="fill:#cacaca;fill-opacity:1;stroke:none" />
            <path
               id="path3982"
               d="m 242.66653,842.78296 c 0.003,-1.15363 58.1467,-30.1543 68.56089,-34.19641 14.37277,-5.57855 38.0632,-9.59253 46.46023,-7.87195 l 6.10303,1.25055 -6.81552,8.15765 c -3.74851,4.4867 -9.97659,10.35834 -13.84015,13.04804 -9.32288,6.49041 -32.13315,14.25207 -49.59509,16.87573 -12.30109,1.84827 -50.87615,3.9231 -50.87339,2.73639 z m 231.51474,-0.63641 c -26.10784,-1.57666 -28.09448,-1.94068 -52.43368,-9.60767 -14.56162,-4.58698 -18.2858,-6.80396 -29.52701,-17.57745 L 379.3569,802.633 l 5.68009,-1.59082 c 14.61316,-4.09284 61.50937,9.40771 82.04812,23.61999 3.9029,2.70075 9.33185,5.57886 12.0643,6.39581 6.22785,1.86194 23.8469,10.86853 23.8469,12.19013 0,0.54101 -1.11783,0.8385 -2.48404,0.66107 -1.36624,-0.17743 -13.21518,-0.97058 -26.331,-1.76263 z M 190.00562,807.21582 c -10.92984,-3.39703 -23.76122,-7.28949 -28.5142,-8.6499 l -8.64173,-2.47357 14.60346,-2.52802 c 8.03191,-1.39044 23.27091,-4.30188 33.86445,-6.46985 29.54055,-6.04559 59.12945,-4.28949 78.26989,4.64533 l 5.11688,2.38855 -6.38928,5.71527 c -16.73596,14.9704 -53.88427,18.07159 -88.30948,7.37219 z m 295.24386,2.35339 c -14.21521,-5.23754 -27.20087,-14.3526 -23.48361,-16.48382 7.76636,-4.45288 33.67938,-9.93274 46.9696,-9.93274 12.25306,0 44.52484,5.05774 75.31208,11.80316 5.80383,1.27161 3.35253,2.39252 -22.05103,10.0835 -24.92975,7.54754 -30.96789,8.64349 -47.26813,8.57947 -13.38104,-0.0526 -21.75171,-1.20252 -29.47891,-4.04957 z M 320.87997,793.14728 c -12.54528,-3.72418 -38.64837,-33.9953 -43.40692,-50.33795 l -1.37256,-4.71381 8.58277,4.4859 c 4.72052,2.46729 14.76504,6.64026 22.3212,9.27332 25.1307,8.75714 36.68856,18.22491 43.93298,35.9884 l 3.06903,7.52533 -13.44058,-0.18366 c -7.39228,-0.10095 -16.25098,-1.01788 -19.68592,-2.03753 z m 70.83078,-1.40637 c 0,-5.54908 14.16828,-23.64557 23.42829,-29.92383 4.08649,-2.77063 13.159,-6.96436 20.1611,-9.3194 7.00211,-2.35504 17.13715,-6.45953 22.52231,-9.12115 l 9.79123,-4.8393 -1.26569,5.16669 c -3.05826,12.48383 -22.43255,37.76184 -34.492,45.00244 -6.9252,4.15796 -12.31858,5.53491 -24.51203,6.25812 -14.70324,0.87201 -15.63321,0.68024 -15.63321,-3.22357 z m -125.19632,-9.99903 c -21.47732,-7.84833 -36.67408,-25.61779 -44.79051,-52.37323 -2.74579,-9.05133 -5.54587,-20.40875 -6.22239,-25.23864 l -1.23005,-8.78156 26.76474,27.10535 c 27.61911,27.97052 33.25147,36.3399 34.97037,51.96417 0.99942,9.08417 -0.8244,10.49133 -9.49216,7.32391 z m 201.24982,-6.69854 c 2.34866,-17.93982 12.54138,-31.68262 50.34,-67.87317 l 12.12713,-11.61115 -1.61358,10.45771 c -5.17017,33.50805 -22.24707,62.68841 -42.2789,72.24444 -5.59369,2.6684 -12.3002,4.86066 -14.90332,4.87158 -4.37345,0.0184 -4.65232,-0.59607 -3.67133,-8.08941 z M 156.22247,763.03565 c -22.87613,-7.27277 -28.80013,-10.28748 -50.70142,-25.80194 -12.126459,-8.59015 -21.776102,-15.8183 -21.443705,-16.06257 3.002571,-2.20629 74.661805,5.79529 80.939115,9.03785 1.72119,0.8891 8.94216,4.51733 16.04654,8.06274 7.1044,3.54535 16.40659,9.58539 20.67153,13.42218 l 7.75445,6.97607 -7.13286,3.05335 c -11.85428,5.07446 -32.45648,5.66058 -46.13365,1.31232 z m 394.75257,1.63928 c -4.76172,-0.95911 -9.92634,-2.82245 -11.47681,-4.14081 -3.65808,-3.11035 -0.18048,-7.23303 14.55328,-17.2525 16.30249,-11.08637 34.70917,-16.79169 61.6156,-19.09839 34.64179,-2.96985 44.05628,-3.30731 42.98743,-1.54083 -2.28156,3.77081 -43.20978,30.36908 -52.76257,34.28924 -22.27875,9.14234 -37.39142,11.27319 -54.91693,7.74329 z M 193.5076,737.74585 c -12.48043,-9.64837 -23.7012,-26.08313 -26.34825,-38.59143 -1.26538,-5.97949 -1.98223,-22.31573 -1.62978,-37.14209 l 0.62912,-26.46765 7.26219,14.25183 c 3.99417,7.8385 9.6033,17.75836 12.46465,22.04413 13.89822,20.81689 21.65255,49.02868 17.84253,64.91473 l -1.799,7.50098 -8.42146,-6.5105 z M 541.224,723.82013 c 1.05169,-21.95709 4.43432,-32.79352 14.95208,-47.90057 2.47083,-3.54889 8.41694,-13.97766 13.21357,-23.17499 l 8.72113,-16.72247 1.3916,17.11535 c 1.6734,20.58173 -1.12445,46.98401 -6.13721,57.91333 -3.91522,8.53644 -20.78845,27.07917 -28.47754,31.29511 l -4.67376,2.56268 1.01013,-21.08844 z m -423.02033,-25.099 c -6.70156,-1.51855 -15.19091,-4.35376 -18.865232,-6.30041 -11.991142,-6.35291 -32.429771,-24.48511 -41.409981,-36.737 -4.835621,-6.59729 -11.477299,-14.97272 -14.759319,-18.612 -6.731209,-7.46405 -6.334419,-7.81134 4.21159,-3.6864 4.120811,1.61181 12.517872,3.94244 18.66011,5.17926 12.829178,2.58313 35.049892,12.98846 47.552652,22.26751 9.50161,7.0517 24.29411,23.9726 28.85274,33.00415 2.71128,5.37158 2.66458,5.84381 -0.58024,5.86933 -1.94076,0.0153 -5.3172,0.42132 -7.50317,0.90222 -2.18596,0.4809 -9.45758,-0.3681 -16.15916,-1.88666 z m 487.63245,1.5517 c -3.00574,-0.47608 -5.46491,-1.32861 -5.46491,-1.89472 0,-4.04516 12.15381,-20.71716 21.62275,-29.66101 13.07446,-12.34936 39.90002,-26.84112 55.97753,-30.24017 5.95759,-1.25958 14.75177,-3.61041 19.54267,-5.22412 10.32226,-3.47681 12.55383,-2.4574 5.29199,2.41742 -2.87158,1.92761 -8.29864,8.18512 -12.06024,13.90546 -11.62451,17.67804 -17.97455,23.74035 -42.39142,40.47082 -9.2038,6.30646 -32.25769,11.85126 -42.51837,10.22632 z M 134.83639,673.22516 c -5.1529,-6.1676 -7.61762,-11.89716 -10.10312,-23.48596 -1.80815,-8.43054 -3.28754,-18.86603 -3.28754,-23.19013 0,-11.32177 7.25431,-45.79541 11.73798,-55.7807 3.7732,-8.40313 3.82746,-8.43579 4.00097,-2.4107 0.0968,3.35937 3.29048,18.93451 7.09716,34.61151 4.33615,17.8573 6.93084,33.49859 6.94689,41.87689 0.0254,13.22998 -4.38867,33.25189 -7.80802,35.41699 -0.97277,0.61597 -4.83571,-2.55108 -8.58432,-7.0379 z m 463.81473,2.43683 c -8.04864,-20.83521 -7.74182,-34.4563 1.6377,-72.69281 3.2962,-13.43744 6.00458,-26.8971 6.01855,-29.9104 0.0829,-17.8017 8.80268,2.3089 13.9682,32.21527 4.96497,28.7453 -1.46966,62.23834 -13.74328,71.53516 l -5.75421,4.35858 -2.12696,-5.5058 z M 81.978309,618.13776 C 67.731902,612.95459 53.464298,601.47266 44.955779,588.34369 41.117938,582.42176 32.64767,566.55152 26.132958,553.0766 l -11.844939,-24.49994 9.36271,5.51514 c 5.1495,3.03332 14.589481,9.23547 20.977772,13.78259 6.388268,4.54712 14.751308,10.21784 18.584499,12.60175 14.38821,8.94794 30.71104,35.03577 33.632336,53.75262 1.475464,9.45319 0.834717,9.62165 -14.867027,3.909 z m 564.099451,1.05353 c 0,-1.71582 2.8078,-10.57898 6.2395,-19.69599 7.02344,-18.65905 16.31824,-30.41369 33.27234,-42.07824 15.50122,-10.66498 40.78247,-26.71088 42.09637,-26.71839 2.09729,-0.0121 -23.94598,51.85059 -30.83929,61.41345 -8.06653,11.19043 -21.40198,21.08307 -35.57495,26.39045 -12.34485,4.62286 -15.19397,4.75201 -15.19397,0.68872 z M 95.804351,592.84979 c -5.348053,-14.6444 -5.413429,-33.16339 -0.178429,-50.52801 4.257317,-14.12146 29.772348,-56.50333 29.676998,-49.29507 -0.31342,23.69729 -4.28445,71.21554 -6.57063,78.62619 -3.90094,12.64483 -9.90974,24.40728 -14.76753,28.90814 -3.93004,3.64123 -4.059083,3.51935 -8.160409,-7.71125 z M 639.5874,600.4242 c -4.79889,-5.45935 -12.5935,-22.79859 -15.17779,-33.76307 -2.03083,-8.61633 -6.58802,-74.76391 -5.25122,-76.22174 1.48687,-1.62161 25.4458,39.00574 29.14312,49.41834 6.12165,17.23987 6.06244,41.18213 -0.13458,54.45856 -2.48273,5.31897 -4.72412,9.67089 -4.9809,9.67089 -0.25671,0 -1.87609,-1.60333 -3.59863,-3.56298 z M 59.452888,527.42456 C 41.281639,515.16449 31.021829,494.44718 25.17551,458.20957 c -1.644171,-10.1912 -3.63028,-20.26923 -4.413601,-22.39569 -1.09268,-2.9664 0.24473,-2.44471 5.746181,2.2416 3.94368,3.35935 9.356068,7.6583 12.027519,9.55323 8.363609,5.93246 29.678646,38.43615 33.574512,51.1983 4.403465,14.42517 4.957397,35.95709 0.925018,35.95709 -1.487213,0 -7.599243,-3.30273 -13.582253,-7.33954 z m 609.151662,-7.81427 c 1.47205,-17.84149 6.06153,-31.25964 15.40668,-45.04446 6.99011,-10.31085 36.9516,-41.60028 39.83484,-41.60028 0.8927,0 0.74109,2.37655 -0.33679,5.28122 -1.07801,2.90472 -3.21588,13.21179 -4.75098,22.90469 -5.39697,34.07694 -16.76276,55.93173 -34.83502,66.98288 -16.09461,9.8418 -16.80164,9.44836 -15.31873,-8.52405 z M 80.658684,509.62113 c -0.902634,-7.40149 -0.295387,-15.06665 1.895126,-23.92267 5.489021,-22.19132 11.578667,-32.28549 30.91543,-51.24521 9.852,-9.65988 17.9127,-17.09616 17.9127,-16.52502 0,0.57113 -1.42991,5.7915 -3.17766,11.60083 -9.67395,32.15597 -15.72227,49.78863 -19.29441,56.24905 -5.48765,9.92483 -23.678768,34.73422 -25.468327,34.73422 -0.800072,0 -2.052361,-4.90106 -2.78286,-10.8912 z m 571.855476,1.05386 c -16.11908,-19.58505 -24.7923,-39.50671 -39.15039,-89.92526 l -1.44946,-5.08994 4.93219,5.08994 c 2.71276,2.79947 11.65899,11.79214 19.88049,19.9837 12.73657,12.69013 15.74371,17.05802 20.32483,29.52158 5.71667,15.55307 8.42047,38.01474 5.51263,45.7962 -1.69873,4.54584 -2.02991,4.36865 -10.05029,-5.37622 z M 66.6203,443.36746 c -15.861301,-9.9093 -22.195511,-31.86392 -19.69899,-68.27725 0.850159,-12.40002 1.567791,-25.45047 1.594749,-29.00097 0.04763,-6.27582 0.23772,-6.13416 6.82951,5.0899 3.729271,6.34998 8.018692,12.95081 9.532063,14.66855 4.086937,4.63885 11.932686,23.86774 14.796684,36.26474 2.517151,10.89578 1.894707,22.34073 -2.026489,37.26001 -2.369629,9.01593 -2.762817,9.15836 -11.027527,3.99503 z m 600.90478,-0.73104 c -1.61291,-2.90949 -2.5448,-12.38092 -2.55395,-25.95862 -0.0136,-20.02826 0.39123,-22.21308 6.41394,-34.61151 3.53577,-7.2786 10.33496,-19.40784 15.10944,-26.95383 l 8.68084,-13.72003 1.7038,19.82794 c 2.99573,34.862 0.8551,54.29214 -7.74689,70.31882 -3.52679,6.57086 -13.91412,15.67816 -17.88177,15.67816 -0.65229,0 -2.32874,-2.0614 -3.72541,-4.58093 z M 85.675376,429.79517 c 0,-17.21411 9.870705,-36.08332 26.917614,-51.45648 7.17725,-6.47263 42.01916,-26.81199 45.92962,-26.81199 0.58641,0 -1.75365,3.4357 -5.20018,7.63492 -3.44656,4.19916 -11.64218,15.88056 -18.21248,25.95859 -13.1597,20.18539 -26.15459,34.88211 -38.86279,43.95236 -10.122238,7.22452 -10.571785,7.25525 -10.571785,0.7226 z m 563.347754,-0.15143 c -11.78076,-7.97607 -28.58282,-25.18649 -32.86896,-33.66766 -5.86017,-11.59601 -15.89245,-26.44046 -23.12011,-34.21015 -3.61548,-3.8866 -6.57355,-7.84051 -6.57355,-8.78653 0,-0.94598 9.00171,3.10291 20.00372,8.99756 15.68317,8.40265 22.75141,13.70157 32.72492,24.53333 12.67877,13.76971 15.52057,19.77182 19.82617,41.87432 1.56073,8.012 0.22955,8.17975 -9.99219,1.25913 z M 88.287581,361.31659 C 75.41902,338.97116 75.916998,324.44889 91.13085,278.40271 l 5.661385,-17.13476 6.718005,20.87942 c 5.29348,16.452 6.71308,24.18674 6.69466,36.4765 -0.0256,17.11359 -5.40191,34.93689 -13.418723,44.48551 l -4.42849,5.27469 -4.070107,-7.06748 z m 560.425739,4.16196 c -1.19037,-1.51471 -4.7295,-7.79303 -7.86487,-13.95184 -5.30133,-10.41376 -5.69159,-12.76603 -5.57318,-33.59354 0.11358,-19.98758 0.78808,-24.147 6.27282,-38.68344 3.71259,-9.83945 6.60425,-15.07871 7.30408,-13.23383 8.7063,22.9512 17.02057,53.91437 17.06397,63.54773 0.0387,8.60269 -6.44556,27.79682 -11.58905,34.30448 -2.82355,3.57244 -3.84229,3.86468 -5.61377,1.61044 z M 108.68505,353.05368 c 6.84402,-22.11215 35.12511,-43.24463 68.73804,-51.36303 19.75733,-4.77192 21.14893,-4.0322 9.41195,5.00305 -5.78875,4.45624 -13.7033,11.14886 -17.58791,14.87259 -16.6368,15.94754 -49.10076,35.9974 -58.36833,36.04843 -2.84301,0.0157 -3.30986,-0.95493 -2.19375,-4.56104 z m 518.70795,3.11774 c -7.07342,-1.85388 -27.9812,-14.6929 -38.94525,-23.91538 -6.01141,-5.05658 -17.36316,-14.44555 -25.22613,-20.86444 -7.86298,-6.41888 -13.99213,-11.98239 -13.62024,-12.36337 1.87542,-1.92139 26.93475,4.66293 41.46704,10.89542 18.63452,7.99185 33.91327,21.06527 40.81354,34.92248 6.30371,12.65936 5.76709,14.01334 -4.48896,11.32529 z M 125.80864,289.93857 c -3.00683,-14.19635 -1.24229,-31.27731 4.4371,-42.95158 2.80751,-5.77097 10.84433,-17.62276 17.85963,-26.33736 l 12.7551,-15.84474 1.38902,13.28859 c 3.04668,29.14709 -3.92868,53.38513 -20.09002,69.80914 -5.78487,5.87888 -11.41797,10.68881 -12.51802,10.68881 -1.10004,0 -2.82483,-3.8938 -3.83281,-8.65286 z m 478.02076,-0.32828 c -5.57525,-5.26803 -11.6817,-13.82748 -14.87268,-20.84701 -4.84399,-10.65601 -5.48803,-14.69446 -6.12042,-38.37686 l -0.70672,-26.46764 7.63037,8.9765 c 22.11902,26.02118 28.13397,37.252 29.78643,55.61595 1.09961,12.22003 -1.78283,30.10553 -4.84429,30.0585 -0.77759,-0.0119 -5.67029,-4.04367 -10.87269,-8.95944 z m -448.31395,-7.4443 c 16.97904,-16.45938 33.98029,-22.28253 64.89341,-22.22681 21.85026,0.0394 25.72728,2.15671 12.92883,7.06067 -5.25191,2.01239 -16.70303,7.28519 -25.4469,11.71738 -17.41995,8.83001 -35.90543,13.67627 -52.37534,13.73098 l -10.64328,0.0353 10.64328,-10.31756 z M 565.59448,289.59 c -6.55792,-1.37204 -20.41895,-6.64758 -30.80231,-11.72348 -10.3833,-5.07587 -22.2232,-10.45755 -26.31085,-11.95929 -10.70703,-3.93356 -5.69003,-5.93121 14.98871,-5.96805 31.77002,-0.0566 51.91339,7.34192 68.84521,25.28641 l 6.84839,7.25796 -10.82287,-0.19946 c -5.95258,-0.10971 -16.18842,-1.32205 -22.74628,-2.69409 z M 210.3529,247.77487 c -4.11078,-0.81672 -8.03879,-2.06353 -8.72896,-2.77061 -2.25389,-2.30911 3.21067,-6.95534 13.78159,-11.71781 15.87128,-7.15042 40.56712,-6.70222 63.52916,1.15299 9.56363,3.27167 17.3884,6.67573 17.3884,7.56464 0,0.88887 -3.35349,1.62374 -7.45215,1.63307 -4.09869,0.009 -17.28903,1.36567 -29.31186,3.01419 -23.32924,3.19881 -37.1705,3.51483 -49.20618,1.12353 z m 281.71356,-0.0414 c -6.55789,-0.9137 -19.34466,-2.35152 -28.41503,-3.19523 -9.07038,-0.84368 -15.77732,-2.24995 -14.90433,-3.12504 3.35614,-3.36411 32.09079,-11.9 44.41376,-13.19348 14.91619,-1.56569 34.52682,2.65999 43.82522,9.44336 6.6239,4.83229 7.17639,6.99791 2.27741,8.92665 -5.68103,2.23662 -34.36402,2.93168 -47.19702,1.14374 z M 182.18168,240.3519 c -4.35086,-17.76033 8.67873,-39.78556 33.84348,-57.20903 6.45595,-4.46989 13.65614,-9.16314 16.00041,-10.42942 l 4.26236,-2.30231 -3.5437,14.11455 c -4.98642,19.86075 -10.58838,30.67122 -22.10561,42.65844 -8.15411,8.48688 -22.37085,18.4721 -26.30012,18.4721 -0.47157,0 -1.44211,-2.38698 -2.15682,-5.30432 z m 368.30538,1.24283 c -9.33924,-5.05015 -27.2829,-25.23294 -31.88465,-35.86346 -3.80169,-8.78226 -10.43255,-33.26479 -9.30661,-34.36186 0.36072,-0.35141 7.13944,3.66168 15.06382,8.91801 16.03295,10.63481 33.31225,30.01624 36.49108,40.9303 2.41797,8.30164 1.66968,22.847 -1.21801,23.67682 -1.09296,0.31409 -5.2085,-1.17082 -9.14563,-3.29981 z M 245.72982,204.42778 c 4.1447,-19.71803 14.40296,-27.82977 45.62516,-36.07802 7.65088,-2.02122 15.56604,-4.36953 17.58923,-5.21844 6.9773,-2.92772 -2.07117,10.8341 -17.5516,26.69414 -14.87107,15.23571 -26.51557,21.21922 -41.2947,21.21922 -5.4577,0 -5.6862,-0.34605 -4.36809,-6.6169 z m 231.56763,3.26405 c -4.84396,-1.73712 -12.34289,-6.04527 -16.66424,-9.57366 -7.37073,-6.01821 -29.69684,-34.04754 -28.27778,-35.50141 0.357,-0.36574 4.99543,0.71431 10.30762,2.40009 5.3122,1.68579 15.34552,4.71505 22.2963,6.7317 19.35397,5.61528 34.06247,20.79715 34.06247,35.1588 0,3.33037 -1.25968,4.11838 -6.45853,4.04015 -3.55222,-0.0535 -10.42182,-1.5185 -15.26584,-3.25567 z"
               inkscape:connector-curvature="0"
               style="fill:#cacaca;fill-opacity:1;stroke:none" />
          </g>
        </g>
      </g>
    </g>
    <path
       sodipodi:type="arc"
       style="fill:#ffffff;fill-opacity:1;stroke:#06245a;stroke-width:0.95272297;stroke-miterlimit:4;stroke-opacity:1;stroke-dasharray:none"
       id="path3108"
       sodipodi:cx="-460.62955"
       sodipodi:cy="179.59038"
       sodipodi:rx="76.771591"
       sodipodi:ry="76.771591"
       d="m -383.85796,179.59038 c 0,42.39978 -34.37181,76.77159 -76.77159,76.77159 -42.39978,0 -76.77159,-34.37181 -76.77159,-76.77159 0,-42.39978 34.37181,-76.77159 76.77159,-76.77159 42.39978,0 76.77159,34.37181 76.77159,76.77159 z"
       transform="matrix(3.1488692,0,0,3.1488692,1030.0736,-30.286045)" />
    <path
       transform="matrix(3.0839093,0,0,3.0839093,1000.1512,-18.619909)"
       d="m -383.85796,179.59038 c 0,42.39978 -34.37181,76.77159 -76.77159,76.77159 -42.39978,0 -76.77159,-34.37181 -76.77159,-76.77159 0,-42.39978 34.37181,-76.77159 76.77159,-76.77159 42.39978,0 76.77159,34.37181 76.77159,76.77159 z"
       sodipodi:ry="76.771591"
       sodipodi:rx="76.771591"
       sodipodi:cy="179.59038"
       sodipodi:cx="-460.62955"
       id="path3034"
       style="fill:#06245a;fill-opacity:1;stroke:none"
       sodipodi:type="arc" />
    <path
       transform="matrix(-1.413031,0.28111488,0.28111488,1.413031,-821.15365,-171.26399)"
       d="m -22.857132,535.2193 c 0,85.20965 -69.07607,154.28572 -154.285718,154.28572 -85.20965,0 -154.28572,-69.07607 -154.28572,-154.28572 0,-85.20965 69.07607,-154.28572 154.28572,-154.28572 85.209648,0 154.285718,69.07607 154.285718,154.28572 z"
       sodipodi:ry="154.28572"
       sodipodi:rx="154.28572"
       sodipodi:cy="535.2193"
       sodipodi:cx="-177.14285"
       id="path2994"
       style="fill:none;stroke:none"
       sodipodi:type="arc" />
    <path
       sodipodi:type="arc"
       style="fill:none;stroke:none"
       id="path2985"
       sodipodi:cx="-177.14285"
       sodipodi:cy="535.2193"
       sodipodi:rx="154.28572"
       sodipodi:ry="154.28572"
       d="m -22.857132,535.2193 c 0,85.20965 -69.07607,154.28572 -154.285718,154.28572 -85.20965,0 -154.28572,-69.07607 -154.28572,-154.28572 0,-85.20965 69.07607,-154.28572 154.28572,-154.28572 85.209648,0 154.285718,69.07607 154.285718,154.28572 z"
       transform="matrix(-0.97133073,-0.77048017,0.77048017,-0.97133073,-1004.8276,918.60923)" />
    <g
       style="font-size:40px;font-style:normal;font-variant:normal;font-weight:normal;font-stretch:normal;text-align:start;line-height:125%;letter-spacing:0px;word-spacing:0px;writing-mode:lr-tb;text-anchor:start;fill:#ffffff;fill-opacity:1;stroke:none;font-family:Keifont;-inkscape-font-specification:Keifont"
       id="text2987">
      <path
         d="m -568.25444,413.52674 -22.0673,-19.97565 12.66173,-13.98754 4.40187,3.98464 -7.86443,8.68792 4.08332,3.69628 6.68477,-7.38473 4.45979,4.03707 -6.68476,7.38473 4.66251,4.22058 8.17901,-9.03543 4.4598,4.03707 -12.97631,14.33506 m -16.75765,-27.76211 -4.73251,-0.0688 0.5405,-10.25944 5.96008,0.28425 -1.76807,10.04395"
         id="path4015"
         inkscape:connector-curvature="0" />
      <path
         d="m -543.39355,389.37914 c -2.50117,2.16388 -5.25779,3.13693 -8.26986,2.91914 -2.99238,-0.23482 -5.68977,-1.74067 -8.09218,-4.51756 -2.38536,-2.75718 -3.40874,-5.71129 -3.07015,-8.86234 0.33861,-3.15102 1.76834,-5.81699 4.2892,-7.99792 1.93003,-1.66973 4.13223,-2.50747 6.60659,-2.51322 l 0.47922,5.62873 c -1.29361,0.0173 -2.30475,0.3411 -3.03344,0.97149 -1.18165,1.02233 -1.7508,2.25507 -1.70746,3.69825 0.0434,1.44321 0.68693,2.88364 1.93073,4.32131 1.20972,1.3983 2.52423,2.24107 3.94352,2.5283 1.42195,0.25052 2.67451,-0.0928 3.7577,-1.0299 1.0044,-0.86895 1.65952,-2.14163 1.96536,-3.81807 l 5.10526,1.78149 c -0.33817,2.63414 -1.63967,4.9309 -3.90449,6.8903"
         id="path4017"
         inkscape:connector-curvature="0" />
      <path
         d="m -526.41295,376.603 c -2.53234,1.69433 -5.31934,2.25874 -8.36103,1.69321 -3.02004,-0.57999 -5.53651,-2.37424 -7.54943,-5.38275 -2.01291,-3.00848 -2.71131,-6.01917 -2.09519,-9.03206 0.6233,-3.04899 2.20111,-5.42065 4.73343,-7.115 2.51069,-1.67982 5.2833,-2.21892 8.31782,-1.6173 3.02004,0.58003 5.53651,2.37428 7.54944,5.38275 2.0129,3.00852 2.7113,6.0192 2.09519,9.03207 -0.61615,3.01289 -2.17955,5.35925 -4.69023,7.03908 m -3.19315,-4.77247 c 2.12109,-1.41916 2.03761,-3.83862 -0.25045,-7.25836 -2.30255,-3.44136 -4.51437,-4.45245 -6.63546,-3.0333 -2.16439,1.44816 -2.09531,3.89292 0.20723,7.33428 2.28806,3.41974 4.51429,4.40553 6.67868,2.95738"
         id="path4019"
         inkscape:connector-curvature="0" />
      <path
         d="m -507.45329,365.43766 c -2.04754,1.08599 -3.83718,1.26877 -5.36892,0.54833 -1.52094,-0.75563 -2.87931,-2.26074 -4.07511,-4.51534 l -11.51268,-21.70619 6.24614,-3.31287 11.6408,21.94775 c 0.31724,0.59817 0.66411,0.97427 1.04061,1.12832 0.36427,0.13105 0.69595,0.11726 0.99504,-0.0414 0.23005,-0.12201 0.44791,-0.26703 0.65357,-0.43508 l 3.21182,4.22155 c -0.64519,0.78437 -1.58895,1.506 -2.83127,2.16491"
         id="path4021"
         inkscape:connector-curvature="0" />
      <path
         d="m -491.97193,358.38373 c -3.10673,1.27817 -6.07781,1.34599 -8.91326,0.20346 -2.81137,-1.15242 -4.91558,-3.4265 -6.31264,-6.82222 -1.34752,-3.27529 -1.45497,-6.3427 -0.32236,-9.20226 1.1567,-2.86942 3.07166,-4.85405 5.74488,-5.95389 2.91405,-1.19886 5.52815,-1.17613 7.84232,0.0682 2.33823,1.23447 4.13157,3.36893 5.38002,6.40338 0.5053,1.22825 0.79044,2.19509 0.8554,2.90049 l -12.35462,5.08292 c 1.67353,2.49351 3.97937,3.13586 6.91751,1.92705 1.46906,-0.60439 2.76687,-1.65928 3.89343,-3.16468 l 3.83846,3.06711 c -1.56172,2.50105 -3.75143,4.3312 -6.56914,5.49045 m -9.94239,-11.53805 7.1888,-2.9576 c -1.01065,-2.45646 -2.62379,-3.22891 -4.83943,-2.31738 -0.96332,0.39635 -1.66538,1.05126 -2.10617,1.96474 -0.4408,0.91352 -0.52187,2.01693 -0.2432,3.31024"
         id="path4023"
         inkscape:connector-curvature="0" />
      <path
         d="m -461.04027,348.85828 c -1.95956,0.42546 -3.97102,0.48912 -6.03438,0.19096 -2.06337,-0.29815 -3.97949,-0.96138 -5.74836,-1.98969 l 2.88751,-5.6635 c 1.23679,0.66417 2.55218,1.13805 3.94618,1.42165 1.41391,0.25263 2.68074,0.25738 3.8005,0.0143 2.51941,-0.54701 3.59402,-1.67305 3.22382,-3.37812 -0.1934,-0.8907 -0.91351,-1.50715 -2.16033,-1.84936 -0.34407,-0.11182 -1.22306,-0.29406 -2.63697,-0.54669 l -4.08078,-0.75286 c -1.85425,-0.31689 -3.48491,-1.01546 -4.89198,-2.09569 -1.38714,-1.11117 -2.29344,-2.64653 -2.7189,-4.60611 -0.53597,-2.4685 0.006,-4.75806 1.62652,-6.86869 1.6148,-2.13602 3.94912,-3.53557 7.00297,-4.19865 1.7305,-0.3757 3.49467,-0.41231 5.29251,-0.10983 1.81774,0.27157 3.48548,0.89546 5.00323,1.87167 l -2.52061,5.14413 c -2.31101,-1.07047 -4.47174,-1.38746 -6.48218,-0.95097 -1.06885,0.23209 -1.87441,0.63351 -2.41669,1.20425 -0.51685,0.56526 -0.69238,1.22961 -0.52661,1.99305 0.14918,0.68714 0.56064,1.17074 1.23437,1.45081 0.69364,0.24915 1.81381,0.49893 3.36051,0.74935 0.2456,0.0266 0.42483,0.0543 0.53769,0.0831 l 3.94139,0.6632 c 4.15435,0.72358 6.64041,2.96856 7.4582,6.73495 0.55252,2.54489 0.0142,4.91356 -1.61497,7.10602 -1.60377,2.18695 -4.09798,3.64787 -7.48264,4.38275"
         id="path4025"
         inkscape:connector-curvature="0" />
      <path
         d="m -438.82253,345.34481 c -4.6987,0.37382 -7.29175,-2.50251 -7.77916,-8.62899 l -1.11836,-14.05714 7.08698,-0.56383 1.04711,13.16154 c 0.12184,1.53163 0.40122,2.58048 0.83812,3.14657 0.46078,0.53807 1.15845,0.76993 2.09301,0.69557 0.77878,-0.0619 1.4403,-0.28439 1.98458,-0.66731 0.54218,-0.40886 1.09072,-1.06641 1.64561,-1.97266 l -1.18342,-14.87487 7.08698,-0.56383 1.80611,22.70171 -5.76304,0.45849 -0.79299,-3.07178 -0.15576,0.0124 c -1.85669,2.60337 -4.12194,4.01141 -6.79577,4.22414"
         id="path4027"
         inkscape:connector-curvature="0" />
      <path
         d="m -420.01927,351.92112 1.77572,-31.00388 5.77179,0.33057 0.34067,2.24973 0.19499,0.0112 c 2.18564,-1.72678 4.35742,-2.52839 6.51536,-2.40482 2.70388,0.15489 4.80149,1.33144 6.29284,3.52967 1.49279,2.17226 2.13869,5.01332 1.93769,8.52318 -0.21446,3.74387 -1.33466,6.6794 -3.36063,8.80662 -1.99852,2.1027 -4.29773,3.0796 -6.89761,2.9307 -1.94995,-0.11168 -3.66021,-0.99217 -5.1308,-2.64145 l -0.008,3.56003 -0.37302,6.51277 -7.05874,-0.40428 m 11.22668,-12.93391 c 1.16995,0.067 2.13569,-0.39936 2.89725,-1.39912 0.78752,-0.99826 1.24308,-2.57636 1.36669,-4.73429 0.22483,-3.92584 -0.8847,-5.95875 -3.32859,-6.09874 -1.19597,-0.0685 -2.44215,0.51225 -3.73855,1.7422 l -0.51373,8.96968 c 0.93732,0.94055 2.04297,1.44731 3.31693,1.52027"
         id="path4029"
         inkscape:connector-curvature="0" />
      <path
         d="m -383.29175,348.07858 c -3.29999,-0.6289 -5.82451,-2.19694 -7.57356,-4.70412 -1.72349,-2.5023 -2.24152,-5.55693 -1.55412,-9.16389 0.66302,-3.47904 2.25056,-6.10588 4.76262,-7.88054 2.53763,-1.76975 5.2262,-2.38406 8.06574,-1.84293 3.09531,0.58992 5.27144,2.03854 6.5284,4.34587 1.28249,2.31224 1.61661,5.07997 1.00236,8.3032 -0.24866,1.30465 -0.53867,2.27003 -0.87006,2.89613 l -13.12318,-2.50097 c 0.0375,3.00282 1.61665,4.80161 4.73758,5.39638 1.56044,0.29739 3.22387,0.12396 4.99031,-0.52029 l 1.53628,4.66699 c -2.67526,1.23984 -5.50938,1.57456 -8.50237,1.00417 m -2.01401,-15.09707 7.63601,1.45524 c 0.49725,-2.60927 -0.43086,-4.13817 -2.78431,-4.58671 -1.02327,-0.19499 -1.9692,-0.0306 -2.8378,0.49309 -0.86862,0.52375 -1.53992,1.40321 -2.0139,2.63838 m 6.90815,-11.20961 -2.80994,-4.03488 8.53219,-7.00309 3.86595,5.58816 -9.5882,5.44981"
         id="path4031"
         inkscape:connector-curvature="0" />
      <path
         d="m -369.96572,350.53693 6.72482,-21.7579 5.52344,1.70716 -0.7287,3.94512 0.1866,0.0577 c 1.20191,-1.1549 2.46559,-1.93638 3.79104,-2.34446 1.3503,-0.40034 2.58526,-0.4275 3.7049,-0.0815 1.09471,0.33838 1.93183,0.76065 2.51134,1.26683 l -2.96791,5.50175 c -0.8265,-0.50075 -1.57563,-0.85494 -2.24738,-1.06258 -0.89571,-0.27683 -1.86265,-0.23497 -2.90081,0.12557 -1.0382,0.36056 -2.0386,1.12802 -3.00121,2.30237 l -3.84111,12.42776 -6.75502,-2.08781"
         id="path4033"
         inkscape:connector-curvature="0" />
      <path
         d="m -352.31257,356.36824 8.49952,-21.12789 6.55943,2.63879 -8.49952,21.12789 -6.55943,-2.63879 m 12.97825,-22.73664 c -1.11137,-0.44707 -1.9031,-1.13048 -2.37518,-2.05024 -0.44795,-0.90999 -0.47268,-1.86028 -0.0742,-2.85086 0.39847,-0.99053 1.07439,-1.65896 2.02774,-2.00529 0.98721,-0.36071 2.03649,-0.31754 3.14787,0.12952 1.08718,0.4374 1.84989,1.12317 2.28813,2.05732 0.44791,0.91004 0.47263,1.86033 0.0742,2.85086 -0.39851,0.99059 -1.07442,1.65901 -2.02774,2.00529 -0.95336,0.34632 -1.97363,0.30079 -3.06081,-0.1366"
         id="path4035"
         inkscape:connector-curvature="0" />
      <path
         d="m -331.55302,366.38789 c -2.98151,-1.54793 -4.951,-3.77347 -5.90848,-6.67664 -0.93438,-2.89116 -0.55561,-5.96617 1.13631,-9.22502 1.63192,-3.14327 3.90546,-5.20521 6.82063,-6.18583 2.93827,-0.96858 5.69014,-0.78691 8.25563,0.54501 2.79658,1.45194 4.4665,3.46327 5.00976,6.03398 0.56632,2.58274 0.0935,5.33018 -1.41837,8.24234 -0.61199,1.17873 -1.16642,2.02056 -1.66328,2.52548 l -11.85665,-6.1557 c -0.82436,2.88769 0.17332,5.0635 2.99304,6.52742 1.40984,0.73197 3.05324,1.04235 4.9302,0.93116 l 0.13488,4.91149 c -2.91831,0.42146 -5.72954,-0.0698 -8.43367,-1.47369 m 2.39544,-15.04127 6.89905,3.58183 c 1.22392,-2.35746 0.77272,-4.08816 -1.3536,-5.19212 -0.92451,-0.47996 -1.87788,-0.59348 -2.86011,-0.34055 -0.98226,0.25295 -1.87737,0.90323 -2.68534,1.95084"
         id="path4037"
         inkscape:connector-curvature="0" />
      <path
         d="m -314.10659,376.78945 c -3.86529,-2.69759 -4.03929,-6.5663 -0.52198,-11.60613 l 8.07041,-11.56384 5.82997,4.06874 -7.55623,10.82709 c -0.87934,1.25996 -1.33023,2.2473 -1.35268,2.96203 0.0138,0.70827 0.40508,1.33068 1.17388,1.86721 0.64064,0.44712 1.29275,0.69581 1.95633,0.74608 0.67845,0.0289 1.51986,-0.13016 2.52423,-0.47718 l 8.53989,-12.23653 5.82997,4.06874 -13.03339,18.67512 -4.74086,-3.30864 1.34,-2.87561 -0.12813,-0.0894 c -3.08803,0.82998 -5.73183,0.47743 -7.93141,-1.05766"
         id="path4039"
         inkscape:connector-curvature="0" />
      <path
         d="m -298.25957,387.85719 15.09684,-17.05036 4.3284,3.83247 -2.29035,3.29382 0.14623,0.12948 c 1.57114,-0.55667 3.04461,-0.74768 4.42042,-0.57302 1.39525,0.19195 2.53158,0.67634 3.40898,1.45319 0.85785,0.75959 1.44642,1.48943 1.76572,2.1895 l -4.97215,3.78886 c -0.54656,-0.79696 -1.08304,-1.42849 -1.60944,-1.89461 -0.70192,-0.62148 -1.60012,-0.98198 -2.69459,-1.08151 -1.09451,-0.0995 -2.32234,0.18725 -3.68348,0.8603 l -8.62307,9.73889 -5.29351,-4.68701"
         id="path4041"
         inkscape:connector-curvature="0" />
      <path
         d="m -277.95537,408.30401 c -2.25416,-2.49083 -3.32349,-5.26364 -3.20799,-8.31844 0.13296,-3.03549 1.5607,-5.78516 4.28323,-8.249 2.62597,-2.37647 5.47601,-3.5157 8.55014,-3.41769 3.09156,0.11733 5.60717,1.24763 7.54681,3.39088 2.11434,2.33636 2.97765,4.8039 2.58994,7.40263 -0.37029,2.61804 -1.77187,5.02792 -4.20474,7.22966 -0.98476,0.89117 -1.79804,1.48669 -2.43984,1.78655 l -8.9642,-9.90535 c -1.77998,2.41866 -1.60406,4.80583 0.52779,7.16149 1.06591,1.17782 2.49777,2.04204 4.2956,2.59264 l -1.58706,4.64997 c -2.882,-0.62313 -5.34522,-2.06424 -7.38968,-4.32334 m 7.49236,-13.26056 5.21601,5.76364 c 1.96946,-1.78236 2.1504,-3.56173 0.5428,-5.33813 -0.69898,-0.77235 -1.55285,-1.21133 -2.5616,-1.31696 -1.00879,-0.10562 -2.07453,0.19153 -3.19721,0.89145"
         id="path4043"
         inkscape:connector-curvature="0" />
    </g>
    <g
       transform="translate(0,-2)"
       style="font-size:40px;font-style:normal;font-variant:normal;font-weight:normal;font-stretch:normal;text-align:start;line-height:125%;letter-spacing:0px;word-spacing:0px;writing-mode:lr-tb;text-anchor:start;fill:#ffffff;fill-opacity:1;stroke:none;font-family:Keifont;-inkscape-font-specification:Keifont"
       id="text2996">
      <path
         d="m -636.51582,589.51772 c -0.71541,-2.74691 -0.25319,-5.2085 1.38667,-7.38476 1.63986,-2.17626 4.23645,-3.72711 7.7898,-4.65255 3.45252,-0.89919 6.47351,-0.71721 9.06298,0.54594 2.62119,1.28178 4.24684,3.13232 4.87695,5.55161 0.30189,1.15924 0.36557,2.17871 0.19105,3.0584 -0.16801,0.90487 -0.52829,1.84638 -1.08082,2.82452 l 3.21981,-1.12113 7.33349,-1.90996 1.80165,6.91768 -30.92162,8.05329 -1.45707,-5.59462 1.97905,-1.08054 -0.0394,-0.15121 c -2.22351,-1.30465 -3.60437,-2.9902 -4.14256,-5.05667 m 6.10499,0.34755 c 0.36097,1.38604 1.26391,2.32148 2.70879,2.80632 l 8.69435,-2.26437 c 0.6326,-1.18737 0.77827,-2.43627 0.43699,-3.74672 -0.26912,-1.03324 -0.99958,-1.77141 -2.19137,-2.21449 -1.16663,-0.44966 -2.70758,-0.42508 -4.62284,0.0737 -4.00697,1.04358 -5.68227,2.82541 -5.02592,5.34552"
         style="fill:#ffffff;fill-opacity:1"
         id="path4046"
         inkscape:connector-curvature="0" />
      <path
         d="m -627.85051,616.6479 c -1.20623,-3.13536 -1.20556,-6.10722 0.002,-8.91558 1.21691,-2.78407 3.53887,-4.83532 6.96588,-6.15376 3.30547,-1.27168 6.37455,-1.30841 9.20725,-0.11021 2.842,1.22252 4.78197,3.18271 5.81992,5.88056 1.13139,2.94091 1.04843,5.55379 -0.2489,7.83867 -1.28803,2.30916 -3.46324,4.05284 -6.52565,5.23103 -1.23958,0.47686 -2.21272,0.73964 -2.91944,0.78833 l -4.79686,-12.46848 c -2.53142,1.61563 -3.22673,3.90605 -2.08595,6.87128 0.57038,1.48259 1.59508,2.80436 3.07412,3.96532 l -3.15475,3.76676 c -2.4644,-1.61894 -4.2436,-3.85025 -5.33762,-6.69392 m 11.76411,-9.67387 2.79116,7.25505 c 2.47909,-0.95377 3.28852,-2.54868 2.42828,-4.78473 -0.37404,-0.97221 -1.0126,-1.68917 -1.91568,-2.1509 -0.90312,-0.46173 -2.00437,-0.5682 -3.30376,-0.31942"
         style="fill:#ffffff;fill-opacity:1"
         id="path4048"
         inkscape:connector-curvature="0" />
      <path
         d="m -615.4427,643.11177 c -1.09615,-2.04212 -1.28782,-3.83083 -0.57501,-5.36613 0.74807,-1.52467 2.24641,-2.89051 4.49504,-4.09751 l 21.6487,-11.62041 3.34387,6.22959 -21.88962,11.74974 c -0.59659,0.32022 -0.97096,0.66895 -1.12313,1.0462 -0.12924,0.36493 -0.1138,0.69654 0.0463,0.99483 0.12315,0.22944 0.26926,0.44658 0.43832,0.6514 l -4.20553,3.23276 c -0.78756,-0.64129 -1.51388,-1.58144 -2.17896,-2.82047"
         style="fill:#ffffff;fill-opacity:1"
         id="path4050"
         inkscape:connector-curvature="0" />
      <path
         d="m -609.05169,653.95383 c -1.12333,-1.72354 -1.46282,-3.4606 -1.01846,-5.21118 0.44435,-1.75058 1.48466,-3.1591 3.12093,-4.22555 2.02897,-1.3224 4.14723,-1.50624 6.35479,-0.55153 2.20754,0.95472 4.72722,3.15143 7.55905,6.59014 1.55093,-1.19736 1.74342,-2.69053 0.57745,-4.47952 -0.88162,-1.35264 -2.53664,-2.65193 -4.96506,-3.89787 l 2.58331,-4.62118 c 3.51418,1.7195 6.13155,3.89916 7.85212,6.53901 3.35574,5.14879 2.13197,9.61436 -3.6713,13.39671 l -10.8321,7.05992 -3.1567,-4.84336 1.59947,-1.69524 -0.0853,-0.1309 c -2.70837,-0.72157 -4.6811,-2.03139 -5.91818,-3.92945 m 5.95801,-0.9457 c 0.63986,0.98176 1.7673,1.61466 3.38232,1.8987 l 3.04347,-1.9836 c -2.58348,-3.00997 -4.62789,-4.02439 -6.13325,-3.04325 -1.09085,0.71097 -1.18837,1.75368 -0.29254,3.12815"
         style="fill:#ffffff;fill-opacity:1"
         id="path4052"
         inkscape:connector-curvature="0" />
      <path
         d="m -592.26912,676.61293 22.06805,-19.97481 6.99905,7.7325 c 1.15337,1.27428 2.06768,2.53665 2.74294,3.78711 0.71197,1.2523 1.1734,2.53821 1.3843,3.85773 0.21082,1.31953 0.0433,2.64787 -0.50262,3.98504 -0.52667,1.31968 -1.44642,2.57369 -2.75928,3.76205 -1.67975,1.52039 -3.4842,2.39849 -5.41337,2.63431 -1.90991,0.21834 -3.7022,-0.0737 -5.37687,-0.87612 -1.65541,-0.81991 -3.21708,-2.04076 -4.68503,-3.66255 l -2.33301,-2.57751 -7.32706,6.63206 -4.7971,-5.29981 m 16.2945,-5.10701 2.09709,2.31685 c 2.30678,2.54854 4.58965,2.80048 6.84861,0.75582 1.08117,-0.97865 1.54671,-1.99716 1.39663,-3.05555 -0.13084,-1.07586 -0.79915,-2.27988 -2.00495,-3.61208 l -1.96603,-2.17205 -6.37135,5.76701"
         style="fill:#ffffff;fill-opacity:1"
         id="path4054"
         inkscape:connector-curvature="0" />
      <path
         d="m -573.79255,696.23434 15.21457,-16.94539 4.30175,3.86236 -2.31311,3.27788 0.14533,0.13048 c 1.57496,-0.54578 3.04972,-0.72657 4.42428,-0.54238 1.39389,0.2016 2.52684,0.69385 3.39884,1.47675 0.85257,0.76552 1.43607,1.49941 1.75051,2.20168 l -4.99827,3.75433 c -0.54102,-0.80072 -1.07312,-1.43595 -1.59628,-1.9057 -0.6976,-0.62633 -1.59328,-0.99304 -2.68703,-1.10015 -1.0938,-0.10709 -2.32358,0.17116 -3.68936,0.83477 l -8.69031,9.67893 -5.26092,-4.72356"
         style="fill:#ffffff;fill-opacity:1"
         id="path4056"
         inkscape:connector-curvature="0" />
      <path
         d="m -552.22565,714.86508 c -2.45655,-1.80247 -3.93781,-4.22978 -4.44379,-7.28193 -0.485,-3.03674 0.3432,-6.01434 2.4846,-8.93279 2.14138,-2.91843 4.73324,-4.60195 7.77559,-5.05056 3.07872,-0.45417 5.84636,0.21998 8.30291,2.02243 2.43552,1.78707 3.88808,4.20947 4.35769,7.26721 0.48497,3.03674 -0.34323,6.01434 -2.48459,8.93279 -2.14142,2.91844 -4.73328,4.60196 -7.7756,5.05056 -3.04235,0.44858 -5.78129,-0.22065 -8.21681,-2.00771 m 3.39695,-4.62962 c 2.0576,1.50975 4.30345,0.60595 6.73757,-2.71142 2.44948,-3.33836 2.64543,-5.76243 0.58784,-7.27219 -2.09962,-1.54056 -4.37417,-0.64166 -6.82366,2.6967 -2.43411,3.31737 -2.60136,5.74634 -0.50175,7.28691"
         style="fill:#ffffff;fill-opacity:1"
         id="path4058"
         inkscape:connector-curvature="0" />
      <path
         d="m -536.80774,735.73184 c -2.43928,-1.40003 -4.19832,-2.96511 -5.27712,-4.69523 -1.06917,-1.6946 -1.12412,-3.37757 -0.16485,-5.04893 0.92038,-1.6036 2.5966,-2.35303 5.02865,-2.24829 l 0.11666,-0.20327 c -0.75631,-1.45497 -0.70668,-2.92779 0.14889,-4.41846 0.81667,-1.42291 2.23943,-2.22774 4.26828,-2.41447 l 0.0778,-0.13551 c -0.45682,-0.98281 -0.69218,-2.06371 -0.70609,-3.24273 0.0216,-1.18861 0.34356,-2.32499 0.9658,-3.40913 1.30926,-2.28116 3.12219,-3.58268 5.43877,-3.90454 2.32953,-0.34441 4.64618,0.14449 6.94997,1.46671 1.12927,0.64817 2.07748,1.40258 2.84463,2.26322 l 7.2501,4.16116 -2.5667,4.47202 -3.04911,-1.75002 c -0.002,0.83982 -0.28112,1.74533 -0.83851,2.71652 -1.25744,2.19084 -2.94428,3.4296 -5.0605,3.7163 -2.08071,0.27707 -4.28423,-0.25199 -6.61057,-1.58719 -0.63242,-0.36297 -1.34034,-0.93442 -2.12376,-1.71436 -0.62693,0.15063 -1.09595,0.49698 -1.40705,1.03904 -0.50557,0.88085 0.21284,1.87869 2.15525,2.99352 l 3.11686,1.78891 c 5.05924,2.90373 6.61663,6.04955 4.67218,9.43745 -1.20559,2.10048 -3.20067,3.22238 -5.98525,3.3657 -2.77499,0.17884 -5.85642,-0.70397 -9.24431,-2.64842 m 15.2315,-19.63261 c 0.5574,-0.97118 0.74803,-1.85263 0.57189,-2.64434 -0.14062,-0.80132 -0.58359,-1.41587 -1.32891,-1.84367 -0.74535,-0.42777 -1.51073,-0.50674 -2.29613,-0.23692 -0.74989,0.26023 -1.40353,0.87593 -1.96093,1.84712 -0.57039,0.99379 -0.78528,1.89134 -0.64466,2.69266 0.17614,0.79171 0.63688,1.40145 1.38223,1.82923 0.74532,0.42779 1.49293,0.51157 2.24282,0.25135 0.7854,-0.26983 1.4633,-0.90164 2.03369,-1.89543 m -12.06619,16.31486 c 1.2648,0.72592 2.40913,1.11247 3.43299,1.15965 1.04641,0.0601 1.75111,-0.22603 2.11409,-0.85843 0.32407,-0.56466 0.30729,-1.08473 -0.0503,-1.56022 -0.34803,-0.43996 -1.01893,-0.94512 -2.0127,-1.51549 l -1.86334,-1.06946 c -1.21965,-0.70001 -2.10512,-1.32833 -2.6564,-1.88494 -0.95649,0.20168 -1.61621,0.61872 -1.97918,1.25113 -0.79075,1.37774 0.2142,2.87032 3.01487,4.47776"
         style="fill:#ffffff;fill-opacity:1"
         id="path4060"
         inkscape:connector-curvature="0" />
      <path
         d="m -517.5726,735.24763 9.37535,-20.7541 5.26862,2.38002 -1.2131,3.82405 0.17799,0.0804 c 1.33606,-0.99666 2.68702,-1.61513 4.0529,-1.8554 1.38956,-0.22953 2.61834,-0.10308 3.68632,0.37934 1.04421,0.47173 1.82239,0.99471 2.33454,1.56895 l -3.62831,5.09049 c -0.75791,-0.59953 -1.45724,-1.04403 -2.09799,-1.3335 -0.85439,-0.38594 -1.81904,-0.46451 -2.89395,-0.23572 -1.07494,0.22882 -2.16292,0.86607 -3.26395,1.91176 l -5.35504,11.8544 -6.44338,-2.9107"
         style="fill:#ffffff;fill-opacity:1"
         id="path4062"
         inkscape:connector-curvature="0" />
      <path
         d="m -495.30044,745.14454 c -1.94756,-0.66292 -3.2867,-1.82022 -4.01741,-3.4719 -0.73071,-1.65168 -0.78139,-3.40199 -0.15204,-5.25094 0.7804,-2.29269 2.3337,-3.74461 4.65992,-4.35577 2.32621,-0.61114 5.6645,-0.43764 10.01491,0.52048 0.48141,-1.89928 -0.28863,-3.19298 -2.31012,-3.88108 -1.52848,-0.52026 -3.63258,-0.52123 -6.31231,-0.003 l -0.81923,-5.23046 c 3.82631,-0.81575 7.23096,-0.71595 10.21395,0.29938 5.818,1.98039 7.61095,6.24937 5.37887,12.80696 l -4.16632,12.24004 -5.47289,-1.86289 0.21235,-2.32099 -0.14792,-0.0503 c -2.5764,1.10367 -4.93699,1.29049 -7.08176,0.56044 m 4.10446,-4.42105 c 1.10935,0.37761 2.38707,0.17982 3.83315,-0.59337 l 1.1706,-3.43904 c -3.89039,-0.77404 -6.12508,-0.31055 -6.70407,1.39048 -0.41958,1.23263 0.14719,2.11328 1.70032,2.64193"
         style="fill:#ffffff;fill-opacity:1"
         id="path4064"
         inkscape:connector-curvature="0" />
      <path
         d="m -477.31088,750.80262 4.14469,-22.3931 5.68469,1.05217 -0.0652,2.92766 0.19205,0.0355 c 1.30488,-0.89727 2.52159,-1.5328 3.65014,-1.90659 1.13326,-0.39935 2.39128,-0.47107 3.77407,-0.21516 2.89354,0.53558 4.70178,2.14149 5.42472,4.81774 1.37029,-0.96462 2.65244,-1.66749 3.84644,-2.10862 1.21954,-0.43635 2.50791,-0.52894 3.8651,-0.27776 2.35579,0.43605 3.96292,1.55451 4.82141,3.35539 0.85842,1.80091 1.01987,4.14814 0.48434,7.04169 l -2.55932,13.82764 -6.99065,-1.29388 2.40293,-12.98262 c 0.27486,-1.48518 0.25958,-2.54737 -0.0458,-3.18656 -0.27512,-0.66003 -0.87359,-1.07537 -1.7954,-1.246 -1.07551,-0.19905 -2.38945,0.24634 -3.94182,1.33617 l -2.7655,14.94153 -7.02905,-1.30099 2.40293,-12.98262 c 0.27487,-1.48518 0.25959,-2.54736 -0.0458,-3.18656 -0.27511,-0.66003 -0.87358,-1.07536 -1.7954,-1.246 -1.0755,-0.19904 -2.38944,0.24634 -3.94182,1.33617 l -2.7655,14.94154 -6.95223,-1.28678"
         style="fill:#ffffff;fill-opacity:1"
         id="path4066"
         inkscape:connector-curvature="0" />
      <path
         d="m -437.81653,757.51396 0.0424,-22.7734 5.78124,0.0108 0.46337,2.8915 0.19531,3.6e-4 c 1.12187,-1.11768 2.20417,-1.96202 3.24691,-2.53302 1.04277,-0.597 2.26728,-0.8942 3.67354,-0.8916 2.94269,0.005 5.01067,1.25935 6.20395,3.76155 1.17408,-1.19571 2.30861,-2.11808 3.40359,-2.7671 1.12098,-0.64894 2.37158,-0.97213 3.75181,-0.96958 2.3958,0.004 4.17815,0.81509 5.34705,2.43183 1.16883,1.61678 1.75052,3.89651 1.74508,6.8392 l -0.0262,14.06247 -7.10936,-0.0132 0.0246,-13.2031 c 0.003,-1.5104 -0.20361,-2.55245 -0.61918,-3.12616 -0.38954,-0.59967 -1.05304,-0.90038 -1.99051,-0.90215 -1.09378,-0.002 -2.30597,0.67281 -3.63659,2.02449 l -0.0283,15.19528 -7.14842,-0.0133 0.0246,-13.20311 c 0.003,-1.5104 -0.2036,-2.55245 -0.61919,-3.12615 -0.38952,-0.59967 -1.05302,-0.90039 -1.99051,-0.90215 -1.09376,-0.002 -2.30595,0.67281 -3.63659,2.02448 l -0.0283,15.19529 -7.0703,-0.0132"
         style="fill:#ffffff;fill-opacity:1"
         id="path4068"
         inkscape:connector-curvature="0" />
      <path
         d="m -392.38173,756.31898 c -2.03648,0.29192 -3.75473,-0.13261 -5.15476,-1.27362 -1.40004,-1.14101 -2.23863,-2.67819 -2.51577,-4.61156 -0.34367,-2.39735 0.38273,-4.39565 2.17919,-5.99488 1.79645,-1.59921 4.85072,-2.95782 9.1628,-4.07582 -0.43183,-1.91117 -1.70464,-2.71525 -3.81844,-2.41226 -1.59825,0.22913 -3.4742,1.18205 -5.62785,2.85877 l -3.10119,-4.29087 c 3.04084,-2.46158 6.12084,-3.91595 9.24,-4.36311 6.08363,-0.87206 9.61692,2.12039 10.59989,8.97735 l 1.83471,12.79885 -5.72275,0.82036 -0.86283,-2.1651 -0.15467,0.0222 c -1.7962,2.15166 -3.81564,3.38823 -6.05833,3.70972 m 1.65448,-5.80129 c 1.16,-0.16628 2.20925,-0.92177 3.14774,-2.26647 l -0.51549,-3.59605 c -3.81861,1.07356 -5.60042,2.49968 -5.34543,4.27836 0.18475,1.28892 1.08915,1.81697 2.71318,1.58416"
         style="fill:#ffffff;fill-opacity:1"
         id="path4070"
         inkscape:connector-curvature="0" />
      <path
         d="m -365.40713,751.18573 c -2.65891,0.63801 -4.81942,0.3396 -6.48152,-0.89521 -1.6368,-1.24088 -2.78331,-3.22875 -3.43954,-5.96363 l -2.0416,-8.50849 -3.00076,0.72003 -1.23044,-5.12788 3.34568,-1.12416 -0.6348,-5.99389 5.77361,-1.38537 1.39449,5.8116 5.20385,-1.24866 1.30335,5.43175 -5.20385,1.24866 2.02337,8.43252 c 0.54685,2.27907 1.74457,3.19682 3.59315,2.75325 0.48112,-0.11544 1.13445,-0.40612 1.96001,-0.87202 l 2.25753,4.72074 c -1.69566,0.96927 -3.30317,1.63619 -4.82253,2.00076"
         style="fill:#ffffff;fill-opacity:1"
         id="path4072"
         inkscape:connector-curvature="0" />
      <path
         d="m -356.9816,748.31224 -6.81291,-21.73048 6.74652,-2.11515 6.81291,21.73047 -6.74652,2.11516 m -4.36758,-25.81306 c -1.14305,0.3584 -2.18859,0.33141 -3.13662,-0.081 -0.92317,-0.42012 -1.54447,-1.13959 -1.86389,-2.15843 -0.31941,-1.01878 -0.22009,-1.96419 0.29797,-2.83622 0.53513,-0.90461 1.37422,-1.53612 2.51727,-1.89452 1.11821,-0.35054 2.1428,-0.30334 3.07376,0.14163 0.92318,0.42017 1.54448,1.13965 1.8639,2.15843 0.31941,1.01884 0.22009,1.96425 -0.29798,2.83622 -0.51806,0.87203 -1.3362,1.48332 -2.45441,1.83387"
         style="fill:#ffffff;fill-opacity:1"
         id="path4074"
         inkscape:connector-curvature="0" />
      <path
         d="m -335.38762,741.24665 c -2.81802,1.15858 -5.6616,1.15917 -8.53076,0.002 -2.84508,-1.16729 -4.95583,-3.42488 -6.33226,-6.77278 -1.37642,-3.34787 -1.46399,-6.43726 -0.26271,-9.26817 1.21547,-2.86486 3.23221,-4.87659 6.05021,-6.03519 2.79391,-1.14864 5.61836,-1.12729 8.47335,0.0641 2.84506,1.16732 4.95582,3.42491 6.33226,6.77277 1.37641,3.3479 1.46398,6.43729 0.26271,9.26817 -1.2013,2.83091 -3.1989,4.82069 -5.9928,5.96936 m -2.18348,-5.31086 c 2.36037,-0.97042 2.75827,-3.35839 1.19371,-7.16391 -1.57448,-3.82957 -3.54191,-5.25915 -5.90228,-4.28874 -2.40855,0.99025 -2.82559,3.40017 -1.25111,7.22974 1.56457,3.80552 3.55113,5.21316 5.95968,4.22291"
         style="fill:#ffffff;fill-opacity:1"
         id="path4076"
         inkscape:connector-curvature="0" />
      <path
         d="m -321.28923,734.51981 -11.0652,-19.90454 5.05296,-2.809 1.79522,2.26458 0.17071,-0.0949 c 0.92491,-3.10632 2.49127,-5.27317 4.69909,-6.50056 4.11975,-2.29019 7.67902,-0.73812 10.67783,4.65622 l 6.83272,12.29097 -6.21377,3.45432 -6.41516,-11.53986 c -0.73389,-1.32012 -1.42211,-2.12933 -2.06465,-2.42765 -0.6552,-0.32103 -1.3925,-0.2538 -2.21189,0.20169 -0.66008,0.36697 -1.15318,0.81986 -1.47933,1.35869 -0.32614,0.53887 -0.65349,1.31675 -0.98203,2.33363 l 7.38313,13.28108 -6.17963,3.43533"
         style="fill:#ffffff;fill-opacity:1"
         id="path4078"
         inkscape:connector-curvature="0" />
      <path
         d="m -282.48584,710.31722 c -2.64921,2.06572 -5.49287,2.92913 -8.53101,2.59025 -3.01761,-0.35488 -5.65535,-1.98014 -7.91322,-4.87578 -2.17779,-2.79294 -3.10526,-5.71875 -2.78241,-8.77745 0.34341,-3.07467 1.65487,-5.50075 3.93441,-7.27825 2.48491,-1.93757 5.00904,-2.61788 7.57241,-2.04091 2.58389,0.56101 4.88467,2.13529 6.90235,4.72285 0.81666,1.04738 1.35103,1.90209 1.60309,2.56412 l -10.53518,8.21479 c 2.28183,1.95232 4.67547,1.95167 7.18091,-0.002 1.25272,-0.97679 2.21946,-2.34153 2.90024,-4.09421 l 4.52127,1.9233 c -0.8325,2.82863 -2.45011,5.17971 -4.85286,7.05325 m -12.67632,-8.44327 6.13012,-4.77995 c -1.63335,-2.09469 -3.3947,-2.40544 -5.28405,-0.93224 -0.82145,0.64055 -1.32179,1.45998 -1.501,2.45829 -0.17921,0.99835 0.0391,2.08298 0.65493,3.2539"
         style="fill:#ffffff;fill-opacity:1"
         id="path4080"
         inkscape:connector-curvature="0" />
      <path
         d="m -272.28239,701.33967 -15.93846,-16.26638 4.12937,-4.04612 2.33054,1.70872 0.13951,-0.1367 c 0.0698,-3.24034 1.00688,-5.74447 2.81115,-7.5124 3.36674,-3.29883 7.20986,-2.74408 11.52938,1.66428 l 9.84193,10.04441 -5.07801,4.97565 -9.24048,-9.4306 c -1.0571,-1.07882 -1.93494,-1.67704 -2.63352,-1.79467 -0.7168,-0.13618 -1.41002,0.12378 -2.07965,0.77989 -0.53942,0.52856 -0.89508,1.09581 -1.06699,1.70174 -0.1719,0.60597 -0.28171,1.44275 -0.32941,2.51032 l 10.63475,10.85356 -5.05011,4.9483"
         style="fill:#ffffff;fill-opacity:1"
         id="path4082"
         inkscape:connector-curvature="0" />
      <path
         d="m -247.50931,675.2112 -23.83823,-17.82502 4.28081,-5.72493 19.02053,14.22259 6.92416,-9.25999 4.8177,3.60243 -11.20497,14.98492"
         style="fill:#ffffff;fill-opacity:1"
         id="path4084"
         inkscape:connector-curvature="0" />
      <path
         d="m -233.89826,656.23206 -19.29534,-12.09626 3.75544,-5.99049 19.29534,12.09626 -3.75544,5.99049 m -20.08807,-16.78866 c -0.63626,1.01498 -1.44872,1.67361 -2.43738,1.97588 -0.97479,0.28025 -1.91451,0.13681 -2.81918,-0.43033 -0.90461,-0.5671 -1.4432,-1.35042 -1.61577,-2.34994 -0.18075,-1.03538 0.047,-2.06056 0.68326,-3.07555 0.62247,-0.99287 1.43213,-1.62252 2.42898,-1.88894 0.97483,-0.28021 1.91456,-0.13677 2.81918,0.43033 0.90466,0.56714 1.44325,1.35046 1.61577,2.34994 0.17256,0.99953 -0.0524,1.99573 -0.67486,2.98861"
         style="fill:#ffffff;fill-opacity:1"
         id="path4086"
         inkscape:connector-curvature="0" />
      <path
         d="m -214.83473,642.50129 c -1.28938,2.49954 -2.77411,4.32691 -4.45418,5.4821 -1.64502,1.14399 -3.32384,1.27426 -5.03648,0.3908 -1.64321,-0.84764 -2.46696,-2.48861 -2.47124,-4.92291 l -0.20829,-0.10745 c -1.41964,0.82072 -2.89321,0.8371 -4.4207,0.0491 -1.45806,-0.75213 -2.32579,-2.13742 -2.6032,-4.15587 l -0.13886,-0.0716 c -0.96136,0.50037 -2.03064,0.7839 -3.20785,0.8506 -1.18839,0.0316 -2.33804,-0.23909 -3.44896,-0.81215 -2.33751,-1.20579 -3.71891,-2.95861 -4.1442,-5.25846 -0.44839,-2.31176 -0.0637,-4.64798 1.15399,-7.00867 0.59695,-1.15717 1.30813,-2.13822 2.13355,-2.94314 l 3.8323,-7.42918 4.58248,2.36385 -1.61171,3.12442 c 0.83905,-0.036 1.75616,0.20267 2.75134,0.71601 2.24496,1.15807 3.55803,2.78773 3.93921,4.88899 0.36997,2.06622 -0.0599,4.29122 -1.28955,6.67502 -0.33428,0.64804 -0.87346,1.38084 -1.61752,2.1984 0.17855,0.61956 0.54555,1.0726 1.101,1.35911 0.90261,0.46562 1.86728,-0.29676 2.894,-2.28715 l 1.64753,-3.19385 c 2.67424,-5.1842 5.74715,-6.88091 9.21874,-5.09014 2.15236,1.11031 3.36248,3.05315 3.63037,5.82852 0.30293,2.76419 -0.44099,5.88206 -2.23177,9.35363 m -20.29504,-14.33698 c -0.99518,-0.51334 -1.88428,-0.6643 -2.66731,-0.45289 -0.79421,0.17637 -1.38831,0.64642 -1.78229,1.41014 -0.39397,0.76377 -0.43858,1.53192 -0.13385,2.30445 0.29354,0.73748 0.9379,1.36289 1.93308,1.87624 1.01834,0.52531 1.92461,0.69978 2.71883,0.52342 0.78303,-0.21142 1.37152,-0.69901 1.76549,-1.46277 0.39398,-0.76373 0.4442,-1.51434 0.15066,-2.25182 -0.30474,-0.77253 -0.96627,-1.42145 -1.98461,-1.94677 m 16.83887,11.32344 c 0.66855,-1.29605 1.00346,-2.45654 1.00473,-3.48148 0.0132,-1.04806 -0.30422,-1.73924 -0.95224,-2.07353 -0.5786,-0.29845 -1.0974,-0.2584 -1.5564,0.12016 -0.42393,0.36738 -0.89854,1.06023 -1.42383,2.07855 l -0.98494,1.90936 c -0.64469,1.24978 -1.23272,2.16249 -1.76408,2.73815 0.24431,0.9465 0.69048,1.58688 1.33851,1.92116 1.41177,0.72826 2.85785,-0.34253 4.33825,-3.21237"
         style="fill:#ffffff;fill-opacity:1"
         id="path4088"
         inkscape:connector-curvature="0" />
      <path
         d="m -216.04492,623.35942 -21.29778,-8.06436 2.04722,-5.40665 2.83278,0.5714 0.0692,-0.18265 c -1.29807,-2.9698 -1.49986,-5.63588 -0.60538,-7.99827 1.66914,-4.40808 5.38968,-5.51937 11.16162,-3.33386 l 13.15129,4.97971 -2.51752,6.64871 -12.3476,-4.6754 c -1.41254,-0.53483 -2.46048,-0.70887 -3.14383,-0.5221 -0.70768,0.17759 -1.22752,0.70475 -1.55951,1.58148 -0.26742,0.70629 -0.35184,1.37048 -0.25325,1.99256 0.0986,0.62212 0.35054,1.42758 0.75579,2.4164 l 14.2107,5.38086 -2.50369,6.61217"
         style="fill:#ffffff;fill-opacity:1"
         id="path4090"
         inkscape:connector-curvature="0" />
      <path
         d="m -204.02999,588.77086 c -0.8276,3.25584 -2.54566,5.68076 -5.15416,7.27476 -2.60209,1.56878 -5.68248,1.90087 -9.24119,0.99627 -3.4325,-0.8725 -5.95838,-2.61621 -7.57764,-5.23114 -1.61281,-2.64015 -2.06316,-5.36099 -1.35106,-8.16254 0.77629,-3.05391 2.35405,-5.13831 4.73327,-6.25322 2.38567,-1.14011 5.16855,-1.30599 8.34866,-0.49766 1.2872,0.32721 2.23324,0.67517 2.83813,1.04386 l -3.29116,12.94763 c 2.99957,0.14447 4.8907,-1.32289 5.67339,-4.40206 0.39135,-1.53957 0.31898,-3.21045 -0.2171,-5.01267 l 4.75146,-1.25081 c 1.07554,2.74543 1.23801,5.59462 0.4874,8.54758 m -15.19133,1.09599 1.91503,-7.53386 c -2.57437,-0.65436 -4.15668,0.17944 -4.74692,2.50142 -0.2566,1.00957 -0.14983,1.96372 0.32032,2.86244 0.47018,0.89875 1.30737,1.62208 2.51157,2.17"
         style="fill:#ffffff;fill-opacity:1"
         id="path4092"
         inkscape:connector-curvature="0" />
    </g>
    <path
       sodipodi:type="star"
       style="fill:#ffffff;fill-opacity:1;stroke:none"
       id="path3003"
       sodipodi:sides="5"
       sodipodi:cx="-441.42856"
       sodipodi:cy="419.50504"
       sodipodi:r1="21.092604"
       sodipodi:r2="9.9135237"
       sodipodi:arg1="0.52359878"
       sodipodi:arg2="1.1519173"
       inkscape:flatsided="false"
       inkscape:rounded="-0.01"
       inkscape:randomized="0"
       d="m -423.16183,430.05134 c 0.0716,-0.12395 -14.36528,-1.43164 -14.23453,-1.48985 0.13074,-0.0582 -8.55759,11.54547 -8.4176,11.57523 0.14,0.0297 -3.07755,-14.1046 -2.98178,-13.99824 0.0958,0.10636 -13.62483,-4.57101 -13.60987,-4.42867 0.015,0.14234 12.46325,-7.28548 12.39169,-7.16154 -0.0716,0.12395 0.13698,-14.3705 0.006,-14.31229 -0.13075,0.0582 10.78026,9.60192 10.64027,9.57217 -0.14,-0.0298 13.70949,-4.31046 13.61372,-4.41682 -0.0958,-0.10636 -5.80068,13.2198 -5.81564,13.07746 -0.015,-0.14234 8.33595,11.7065 8.40751,11.58255 z"
       transform="matrix(0.7013905,-0.47949816,0.47949816,0.7013905,-490.94266,-73.41374)" />
    <path
       transform="matrix(-0.7013905,-0.47949816,-0.47949816,0.7013905,-350.96876,-73.41374)"
       d="m -423.16183,430.05134 c 0.0716,-0.12395 -14.36528,-1.43164 -14.23453,-1.48985 0.13074,-0.0582 -8.55759,11.54547 -8.4176,11.57523 0.14,0.0297 -3.07755,-14.1046 -2.98178,-13.99824 0.0958,0.10636 -13.62483,-4.57101 -13.60987,-4.42867 0.015,0.14234 12.46325,-7.28548 12.39169,-7.16154 -0.0716,0.12395 0.13698,-14.3705 0.006,-14.31229 -0.13075,0.0582 10.78026,9.60192 10.64027,9.57217 -0.14,-0.0298 13.70949,-4.31046 13.61372,-4.41682 -0.0958,-0.10636 -5.80068,13.2198 -5.81564,13.07746 -0.015,-0.14234 8.33595,11.7065 8.40751,11.58255 z"
       inkscape:randomized="0"
       inkscape:rounded="-0.01"
       inkscape:flatsided="false"
       sodipodi:arg2="1.1519173"
       sodipodi:arg1="0.52359878"
       sodipodi:r2="9.9135237"
       sodipodi:r1="21.092604"
       sodipodi:cy="419.50504"
       sodipodi:cx="-441.42856"
       sodipodi:sides="5"
       id="path3005"
       style="fill:#ffffff;fill-opacity:1;stroke:none"
       sodipodi:type="star" />
    <path
       transform="matrix(0.34749691,-0.77531479,0.77531479,0.34749691,-799.06901,56.521507)"
       d="m -423.16183,430.05134 c 0.0716,-0.12395 -14.36528,-1.43164 -14.23453,-1.48985 0.13074,-0.0582 -8.55759,11.54547 -8.4176,11.57523 0.14,0.0297 -3.07755,-14.1046 -2.98178,-13.99824 0.0958,0.10636 -13.62483,-4.57101 -13.60987,-4.42867 0.015,0.14234 12.46325,-7.28548 12.39169,-7.16154 -0.0716,0.12395 0.13698,-14.3705 0.006,-14.31229 -0.13075,0.0582 10.78026,9.60192 10.64027,9.57217 -0.14,-0.0298 13.70949,-4.31046 13.61372,-4.41682 -0.0958,-0.10636 -5.80068,13.2198 -5.81564,13.07746 -0.015,-0.14234 8.33595,11.7065 8.40751,11.58255 z"
       inkscape:randomized="0"
       inkscape:rounded="-0.01"
       inkscape:flatsided="false"
       sodipodi:arg2="1.1519173"
       sodipodi:arg1="0.52359878"
       sodipodi:r2="9.9135237"
       sodipodi:r1="21.092604"
       sodipodi:cy="419.50504"
       sodipodi:cx="-441.42856"
       sodipodi:sides="5"
       id="path3009"
       style="fill:#ffffff;fill-opacity:1;stroke:none"
       sodipodi:type="star" />
    <path
       sodipodi:type="star"
       style="fill:#ffffff;fill-opacity:1;stroke:none"
       id="path3013"
       sodipodi:sides="5"
       sodipodi:cx="-441.42856"
       sodipodi:cy="419.50504"
       sodipodi:r1="21.092604"
       sodipodi:r2="9.9135237"
       sodipodi:arg1="0.52359878"
       sodipodi:arg2="1.1519173"
       inkscape:flatsided="false"
       inkscape:rounded="-0.01"
       inkscape:randomized="0"
       d="m -423.16183,430.05134 c 0.0716,-0.12395 -14.36528,-1.43164 -14.23453,-1.48985 0.13074,-0.0582 -8.55759,11.54547 -8.4176,11.57523 0.14,0.0297 -3.07755,-14.1046 -2.98178,-13.99824 0.0958,0.10636 -13.62483,-4.57101 -13.60987,-4.42867 0.015,0.14234 12.46325,-7.28548 12.39169,-7.16154 -0.0716,0.12395 0.13698,-14.3705 0.006,-14.31229 -0.13075,0.0582 10.78026,9.60192 10.64027,9.57217 -0.14,-0.0298 13.70949,-4.31046 13.61372,-4.41682 -0.0958,-0.10636 -5.80068,13.2198 -5.81564,13.07746 -0.015,-0.14234 8.33595,11.7065 8.40751,11.58255 z"
       transform="matrix(-0.34749691,-0.77531479,-0.77531479,0.34749691,-42.575523,56.521507)" />
    <path
       sodipodi:type="star"
       style="fill:#ffffff;fill-opacity:1;stroke:none"
       id="path3015"
       sodipodi:sides="5"
       sodipodi:cx="-441.42856"
       sodipodi:cy="419.50504"
       sodipodi:r1="21.092604"
       sodipodi:r2="9.9135237"
       sodipodi:arg1="0.52359878"
       sodipodi:arg2="1.1519173"
       inkscape:flatsided="false"
       inkscape:rounded="-0.01"
       inkscape:randomized="0"
       d="m -423.16183,430.05134 c 0.0716,-0.12395 -14.36528,-1.43164 -14.23453,-1.48985 0.13074,-0.0582 -8.55759,11.54547 -8.4176,11.57523 0.14,0.0297 -3.07755,-14.1046 -2.98178,-13.99824 0.0958,0.10636 -13.62483,-4.57101 -13.60987,-4.42867 0.015,0.14234 12.46325,-7.28548 12.39169,-7.16154 -0.0716,0.12395 0.13698,-14.3705 0.006,-14.31229 -0.13075,0.0582 10.78026,9.60192 10.64027,9.57217 -0.14,-0.0298 13.70949,-4.31046 13.61372,-4.41682 -0.0958,-0.10636 -5.80068,13.2198 -5.81564,13.07746 -0.015,-0.14234 8.33595,11.7065 8.40751,11.58255 z"
       transform="matrix(0.52152914,-0.67072683,0.67072683,0.52152914,-673.37202,-27.493971)" />
    <path
       transform="matrix(-0.52152914,-0.67072683,-0.67072683,0.52152914,-169.00217,-27.493971)"
       d="m -423.16183,430.05134 c 0.0716,-0.12395 -14.36528,-1.43164 -14.23453,-1.48985 0.13074,-0.0582 -8.55759,11.54547 -8.4176,11.57523 0.14,0.0297 -3.07755,-14.1046 -2.98178,-13.99824 0.0958,0.10636 -13.62483,-4.57101 -13.60987,-4.42867 0.015,0.14234 12.46325,-7.28548 12.39169,-7.16154 -0.0716,0.12395 0.13698,-14.3705 0.006,-14.31229 -0.13075,0.0582 10.78026,9.60192 10.64027,9.57217 -0.14,-0.0298 13.70949,-4.31046 13.61372,-4.41682 -0.0958,-0.10636 -5.80068,13.2198 -5.81564,13.07746 -0.015,-0.14234 8.33595,11.7065 8.40751,11.58255 z"
       inkscape:randomized="0"
       inkscape:rounded="-0.01"
       inkscape:flatsided="false"
       sodipodi:arg2="1.1519173"
       sodipodi:arg1="0.52359878"
       sodipodi:r2="9.9135237"
       sodipodi:r1="21.092604"
       sodipodi:cy="419.50504"
       sodipodi:cx="-441.42856"
       sodipodi:sides="5"
       id="path3017"
       style="fill:#ffffff;fill-opacity:1;stroke:none"
       sodipodi:type="star" />
    <path
       sodipodi:type="arc"
       style="fill:#ffffff;fill-opacity:1;stroke:none"
       id="path3019"
       sodipodi:cx="-460.62955"
       sodipodi:cy="179.59038"
       sodipodi:rx="76.771591"
       sodipodi:ry="76.771591"
       d="m -383.85796,179.59038 c 0,42.39978 -34.37181,76.77159 -76.77159,76.77159 -42.39978,0 -76.77159,-34.37181 -76.77159,-76.77159 0,-42.39978 34.37181,-76.77159 76.77159,-76.77159 42.39978,0 76.77159,34.37181 76.77159,76.77159 z"
       transform="matrix(2.3023673,0,0,2.3023673,640.15116,121.73699)" />
    <g
       style="font-size:64.79878235px;font-style:normal;font-variant:normal;font-weight:normal;font-stretch:normal;text-align:start;line-height:125%;letter-spacing:0px;word-spacing:0px;writing-mode:lr-tb;text-anchor:start;fill:#06245a;fill-opacity:1;stroke:none;font-family:Keifont;-inkscape-font-specification:Keifont"
       id="text3021">
      <path
         d="m -519.38894,559.32971 0,-48.2194 30.56427,0 0,9.61856 -18.98401,0 0,8.92249 16.13641,0 0,9.74513 -16.13641,0 0,10.18809 19.74337,0 0,9.74513 -31.32363,0"
         id="path4095"
         inkscape:connector-curvature="0" />
      <path
         d="m -463.51264,560.21563 c -3.2484,0 -6.45458,-0.59061 -9.61857,-1.77184 -3.16401,-1.18122 -5.96943,-2.88978 -8.41625,-5.12568 l 6.51785,-7.97329 c 1.72964,1.47655 3.64913,2.67887 5.75848,3.60696 2.15151,0.88593 4.15537,1.32889 6.01161,1.32888 4.17646,10e-6 6.2647,-1.41324 6.26472,-4.23976 -2e-5,-1.47652 -0.92813,-2.69993 -2.78432,-3.67024 -0.50626,-0.29529 -1.83514,-0.88591 -3.98664,-1.77185 l -6.20145,-2.59448 c -2.82652,-1.13902 -5.16788,-2.80539 -7.02409,-4.99912 -1.81403,-2.23587 -2.72104,-4.978 -2.72104,-8.22641 0,-4.09207 1.64528,-7.53029 4.93585,-10.31465 3.29055,-2.82646 7.46703,-4.23972 12.52945,-4.23977 2.86867,5e-5 5.67408,0.54848 8.41625,1.64529 2.78429,1.05471 5.21002,2.61562 7.2772,4.68272 l -5.75848,7.27721 c -3.29059,-2.48898 -6.60225,-3.73349 -9.93497,-3.73353 -1.77186,4e-5 -3.18512,0.35863 -4.23977,1.07577 -1.01249,0.71721 -1.51873,1.70859 -1.51872,2.97416 -10e-6,1.13907 0.48513,2.04609 1.45544,2.72104 1.01247,0.63283 2.69993,1.41329 5.06241,2.34136 0.37966,0.12659 0.65387,0.23206 0.82264,0.3164 l 6.01161,2.40465 c 6.32797,2.57341 9.49197,6.98192 9.492,13.22553 -3e-5,4.21868 -1.66641,7.78345 -4.99912,10.69433 -3.29059,2.91088 -7.74129,4.36632 -13.35209,4.36632"
         id="path4097"
         inkscape:connector-curvature="0" />
      <path
         d="m -437.12486,559.32971 0,-48.2194 16.89578,0 c 2.78429,4e-5 5.2944,0.27426 7.53032,0.82264 2.27805,0.50628 4.32411,1.35002 6.13817,2.5312 1.81399,1.18127 3.22724,2.82655 4.23976,4.93584 1.01244,2.06719 1.51868,4.53511 1.51873,7.40377 -5e-5,3.67027 -0.90706,6.79209 -2.72105,9.36545 -1.81406,2.53122 -4.11324,4.36634 -6.89752,5.50536 -2.78436,1.09688 -5.94836,1.6453 -9.49201,1.64529 l -5.63193,0 0,16.00985 -11.58025,0 m 11.58025,-25.12218 5.06241,0 c 5.56861,2e-5 8.35293,-2.4679 8.35297,-7.40377 -4e-5,-2.36242 -0.71721,-4.02879 -2.15153,-4.99912 -1.43437,-1.01245 -3.60699,-1.51869 -6.51784,-1.51873 l -4.74601,0 0,13.92162"
         id="path4099"
         inkscape:connector-curvature="0" />
      <path
         d="m -392.5757,559.32971 0,-48.2194 30.56427,0 0,9.61856 -18.98401,0 0,8.92249 16.13641,0 0,9.74513 -16.13641,0 0,10.18809 19.74337,0 0,9.74513 -31.32363,0"
         id="path4101"
         inkscape:connector-curvature="0" />
      <path
         d="m -351.69678,559.32971 0,-48.2194 11.58025,0 0,38.47427 18.7309,0 0,9.74513 -30.31115,0"
         id="path4103"
         inkscape:connector-curvature="0" />
    </g>
    <path
       style="fill:#ffffff;fill-opacity:1;stroke:#06245a;stroke-width:3;stroke-linecap:round;stroke-linejoin:round;stroke-miterlimit:4;stroke-opacity:1;stroke-dasharray:none;stroke-dashoffset:0"
       d="m -519.56562,573.19902 197.43257,0"
       id="path3878"
       inkscape:connector-curvature="0"
       sodipodi:nodetypes="cc" />
    <g
       style="font-size:31.4194622px;font-style:normal;font-variant:normal;font-weight:normal;font-stretch:normal;text-align:start;line-height:125%;letter-spacing:0px;word-spacing:0px;writing-mode:lr-tb;text-anchor:start;fill:#06245a;fill-opacity:1;stroke:none;font-family:Keifont;-inkscape-font-specification:Keifont"
       id="text3880">
      <path
         d="m -457.06878,615.0451 0,-3.19103 c 3.2524,-2.96603 5.68659,-5.46158 7.30257,-7.48667 1.63642,-2.04553 2.45463,-3.86605 2.45464,-5.46159 -10e-6,-1.06366 -0.27615,-1.88188 -0.82844,-2.45464 -0.53185,-0.57274 -1.26824,-0.85911 -2.20918,-0.85913 -1.24778,2e-5 -2.56715,0.75687 -3.95811,2.27055 l -3.03763,-3.00694 c 1.20687,-1.26822 2.39328,-2.18871 3.55924,-2.76148 1.1864,-0.57273 2.5876,-0.8591 4.20358,-0.85913 2.27053,3e-5 4.11152,0.67505 5.52295,2.02509 1.43186,1.32962 2.1478,3.099 2.14781,5.30817 -10e-6,3.31378 -2.35238,7.34349 -7.0571,12.08913 1.71824,-0.22501 2.98647,-0.33751 3.8047,-0.33752 l 4.29563,0 0,4.72519 -16.20066,0"
         id="path4106"
         inkscape:connector-curvature="0" />
      <path
         d="m -421.38437,603.23212 c -2e-5,3.92744 -0.75687,6.95484 -2.27055,9.08219 -1.49326,2.10691 -3.50811,3.16036 -6.04456,3.16036 -2.53648,0 -4.55133,-1.05345 -6.04457,-3.16036 -1.47279,-2.12735 -2.20918,-5.15475 -2.20918,-9.08219 0,-3.92741 0.73639,-6.90367 2.20918,-8.92877 1.49324,-2.04551 3.50809,-3.06828 6.04457,-3.06831 2.53645,3e-5 4.5513,1.03302 6.04456,3.09899 1.51368,2.04556 2.27053,5.01159 2.27055,8.89809 m -5.27749,0 c -1e-5,-2.02507 -0.15343,-3.63081 -0.46025,-4.81724 -0.28638,-1.18639 -0.63412,-1.9637 -1.04322,-2.33191 -0.40912,-0.36818 -0.9205,-0.55228 -1.53415,-0.5523 -0.45003,2e-5 -0.83868,0.11253 -1.16596,0.33752 -0.32729,0.20457 -0.63413,0.57277 -0.92049,1.10459 -0.28639,0.53185 -0.51139,1.32961 -0.67503,2.39328 -0.14319,1.04324 -0.21479,2.33192 -0.21478,3.86606 -10e-6,2.96604 0.25568,5.03203 0.76707,6.19798 0.53184,1.14551 1.26823,1.71826 2.20919,1.71826 0.94093,0 1.67733,-0.57275 2.20918,-1.71826 0.55228,-1.16595 0.82843,-3.23194 0.82844,-6.19798"
         id="path4108"
         inkscape:connector-curvature="0" />
      <path
         d="m -417.64104,615.0451 0,-4.51041 4.97066,0 0,-13.31645 -4.32631,0 0,-3.4365 c 2.27054,-0.40909 4.20357,-1.1148 5.7991,-2.11713 l 4.11153,0 0,18.87008 4.20358,0 0,4.51041 -14.75856,0"
         id="path4110"
         inkscape:connector-curvature="0" />
      <path
         d="m -399.63008,615.0451 0,-3.19103 c 3.25241,-2.96603 5.68659,-5.46158 7.30257,-7.48667 1.63642,-2.04553 2.45464,-3.86605 2.45465,-5.46159 -10e-6,-1.06366 -0.27616,-1.88188 -0.82844,-2.45464 -0.53185,-0.57274 -1.26825,-0.85911 -2.20918,-0.85913 -1.24779,2e-5 -2.56716,0.75687 -3.95812,2.27055 l -3.03762,-3.00694 c 1.20686,-1.26822 2.39327,-2.18871 3.55923,-2.76148 1.18641,-0.57273 2.5876,-0.8591 4.20358,-0.85913 2.27054,3e-5 4.11152,0.67505 5.52296,2.02509 1.43186,1.32962 2.14779,3.099 2.14781,5.30817 -2e-5,3.31378 -2.35238,7.34349 -7.05711,12.08913 1.71825,-0.22501 2.98648,-0.33751 3.8047,-0.33752 l 4.29563,0 0,4.72519 -16.20066,0"
         id="path4112"
         inkscape:connector-curvature="0" />
    </g>
    <path
       sodipodi:nodetypes="cc"
       inkscape:connector-curvature="0"
       id="path3884"
       d="m -519.56562,498.19902 197.43257,0"
       style="fill:#ffffff;fill-opacity:1;stroke:#06245a;stroke-width:3;stroke-linecap:round;stroke-linejoin:round;stroke-miterlimit:4;stroke-opacity:1;stroke-dasharray:none;stroke-dashoffset:0" />
    <path
       transform="matrix(2.2504331,0,0,2.2504331,616.2288,131.06385)"
       d="m -383.85796,179.59038 c 0,42.39978 -34.37181,76.77159 -76.77159,76.77159 -42.39978,0 -76.77159,-34.37181 -76.77159,-76.77159 0,-42.39978 34.37181,-76.77159 76.77159,-76.77159 42.39978,0 76.77159,34.37181 76.77159,76.77159 z"
       sodipodi:ry="76.771591"
       sodipodi:rx="76.771591"
       sodipodi:cy="179.59038"
       sodipodi:cx="-460.62955"
       id="path3888"
       style="fill:none;stroke:#cacaca;stroke-width:1.33307672;stroke-miterlimit:4;stroke-opacity:1;stroke-dasharray:none"
       sodipodi:type="arc" />
    <g
       id="g3058"
       transform="matrix(0.46151953,0,0,0.46151953,-591.63259,306.95887)"
       style="fill:#052957;fill-opacity:1;stroke:#06245a;stroke-opacity:1">
      <title
         id="title3060">Layer 1</title>
      <g
         id="layer3"
         display="inline"
         style="fill:#052957;fill-opacity:1;stroke:#06245a;stroke-opacity:1;display:inline" />
      <g
         id="layer1-3"
         display="inline"
         style="fill:#052957;fill-opacity:1;stroke:#06245a;stroke-opacity:1;display:inline">
        <g
           id="g22249"
           style="fill:#052957;fill-opacity:1;stroke:#06245a;stroke-opacity:1">
          <path
             id="path18706"
             d="M 209.27003,228.48717 C 126.4415,284.23868 71.502114,381.4379 71.502114,492.04376 c 0,172.91974 134.165746,313.24481 299.495476,313.24481 165.32974,0 299.52719,-140.32507 299.52719,-313.24481 0,-114.14724 -58.51019,-214.06506 -145.81787,-268.82707 -19.97232,-9.62544 -109.79462,-64.7486 0,9.94428 27.8714,18.10281 52.91516,40.93635 73.36847,67.65425 50.72357,64.73883 73.04718,152.25247 61.4837,235.08279 -11.21167,85.65808 -60.05896,164.25775 -128.95733,211.31598 -67.71393,47.29217 -154.87152,61.45325 -233.51139,39.8103 C 213.16785,764.93329 141.19046,700.4173 105.47663,618.10406 67.1747,532.0766 71.757769,426.94898 115.87182,344.3049 c 22.15823,-42.64279 54.81576,-78.76581 93.39822,-105.64142 109.04759,-81.63547 27.96579,-29.22285 0,-10.17631 z"
             stroke-miterlimit="4"
             inkscape:connector-curvature="0"
             style="fill:#052957;fill-opacity:1;stroke:#06245a;stroke-width:2.74799991;stroke-linecap:round;stroke-linejoin:round;stroke-miterlimit:4;stroke-opacity:1;stroke-dashoffset:0" />
          <path
             id="path17799"
             d="m 242.66653,842.78296 c 0.003,-1.15363 58.1467,-30.1543 68.56089,-34.19641 14.37277,-5.57855 38.0632,-9.59253 46.46023,-7.87195 l 6.10303,1.25055 -6.81552,8.15765 c -3.74851,4.4867 -9.97659,10.35834 -13.84015,13.04804 -9.32288,6.49041 -32.13315,14.25207 -49.59509,16.87573 -12.30109,1.84827 -50.87615,3.9231 -50.87339,2.73639 z m 231.51474,-0.63641 c -26.10784,-1.57666 -28.09448,-1.94068 -52.43368,-9.60767 -14.56162,-4.58698 -18.2858,-6.80396 -29.52701,-17.57745 L 379.3569,802.633 l 5.68009,-1.59082 c 14.61316,-4.09284 61.50937,9.40771 82.04812,23.61999 3.9029,2.70075 9.33185,5.57886 12.0643,6.39581 6.22785,1.86194 23.8469,10.86853 23.8469,12.19013 0,0.54101 -1.11783,0.8385 -2.48404,0.66107 -1.36624,-0.17743 -13.21518,-0.97058 -26.331,-1.76263 z M 190.00562,807.21582 c -10.92984,-3.39703 -23.76122,-7.28949 -28.5142,-8.6499 l -8.64173,-2.47357 14.60346,-2.52802 c 8.03191,-1.39044 23.27091,-4.30188 33.86445,-6.46985 29.54055,-6.04559 59.12945,-4.28949 78.26989,4.64533 l 5.11688,2.38855 -6.38928,5.71527 c -16.73596,14.9704 -53.88427,18.07159 -88.30948,7.37219 z m 295.24386,2.35339 c -14.21521,-5.23754 -27.20087,-14.3526 -23.48361,-16.48382 7.76636,-4.45288 33.67938,-9.93274 46.9696,-9.93274 12.25306,0 44.52484,5.05774 75.31208,11.80316 5.80383,1.27161 3.35253,2.39252 -22.05103,10.0835 -24.92975,7.54754 -30.96789,8.64349 -47.26813,8.57947 -13.38104,-0.0526 -21.75171,-1.20252 -29.47891,-4.04957 z M 320.87997,793.14728 c -12.54528,-3.72418 -38.64837,-33.9953 -43.40692,-50.33795 l -1.37256,-4.71381 8.58277,4.4859 c 4.72052,2.46729 14.76504,6.64026 22.3212,9.27332 25.1307,8.75714 36.68856,18.22491 43.93298,35.9884 l 3.06903,7.52533 -13.44058,-0.18366 c -7.39228,-0.10095 -16.25098,-1.01788 -19.68592,-2.03753 z m 70.83078,-1.40637 c 0,-5.54908 14.16828,-23.64557 23.42829,-29.92383 4.08649,-2.77063 13.159,-6.96436 20.1611,-9.3194 7.00211,-2.35504 17.13715,-6.45953 22.52231,-9.12115 l 9.79123,-4.8393 -1.26569,5.16669 c -3.05826,12.48383 -22.43255,37.76184 -34.492,45.00244 -6.9252,4.15796 -12.31858,5.53491 -24.51203,6.25812 -14.70324,0.87201 -15.63321,0.68024 -15.63321,-3.22357 z m -125.19632,-9.99903 c -21.47732,-7.84833 -36.67408,-25.61779 -44.79051,-52.37323 -2.74579,-9.05133 -5.54587,-20.40875 -6.22239,-25.23864 l -1.23005,-8.78156 26.76474,27.10535 c 27.61911,27.97052 33.25147,36.3399 34.97037,51.96417 0.99942,9.08417 -0.8244,10.49133 -9.49216,7.32391 z m 201.24982,-6.69854 c 2.34866,-17.93982 12.54138,-31.68262 50.34,-67.87317 l 12.12713,-11.61115 -1.61358,10.45771 c -5.17017,33.50805 -22.24707,62.68841 -42.2789,72.24444 -5.59369,2.6684 -12.3002,4.86066 -14.90332,4.87158 -4.37345,0.0184 -4.65232,-0.59607 -3.67133,-8.08941 z M 156.22247,763.03565 c -22.87613,-7.27277 -28.80013,-10.28748 -50.70142,-25.80194 -12.126459,-8.59015 -21.776102,-15.8183 -21.443705,-16.06257 3.002571,-2.20629 74.661805,5.79529 80.939115,9.03785 1.72119,0.8891 8.94216,4.51733 16.04654,8.06274 7.1044,3.54535 16.40659,9.58539 20.67153,13.42218 l 7.75445,6.97607 -7.13286,3.05335 c -11.85428,5.07446 -32.45648,5.66058 -46.13365,1.31232 z m 394.75257,1.63928 c -4.76172,-0.95911 -9.92634,-2.82245 -11.47681,-4.14081 -3.65808,-3.11035 -0.18048,-7.23303 14.55328,-17.2525 16.30249,-11.08637 34.70917,-16.79169 61.6156,-19.09839 34.64179,-2.96985 44.05628,-3.30731 42.98743,-1.54083 -2.28156,3.77081 -43.20978,30.36908 -52.76257,34.28924 -22.27875,9.14234 -37.39142,11.27319 -54.91693,7.74329 z M 193.5076,737.74585 c -12.48043,-9.64837 -23.7012,-26.08313 -26.34825,-38.59143 -1.26538,-5.97949 -1.98223,-22.31573 -1.62978,-37.14209 l 0.62912,-26.46765 7.26219,14.25183 c 3.99417,7.8385 9.6033,17.75836 12.46465,22.04413 13.89822,20.81689 21.65255,49.02868 17.84253,64.91473 l -1.799,7.50098 -8.42146,-6.5105 z M 541.224,723.82013 c 1.05169,-21.95709 4.43432,-32.79352 14.95208,-47.90057 2.47083,-3.54889 8.41694,-13.97766 13.21357,-23.17499 l 8.72113,-16.72247 1.3916,17.11535 c 1.6734,20.58173 -1.12445,46.98401 -6.13721,57.91333 -3.91522,8.53644 -20.78845,27.07917 -28.47754,31.29511 l -4.67376,2.56268 1.01013,-21.08844 z m -423.02033,-25.099 c -6.70156,-1.51855 -15.19091,-4.35376 -18.865232,-6.30041 -11.991142,-6.35291 -32.429771,-24.48511 -41.409981,-36.737 -4.835621,-6.59729 -11.477299,-14.97272 -14.759319,-18.612 -6.731209,-7.46405 -6.334419,-7.81134 4.21159,-3.6864 4.120811,1.61181 12.517872,3.94244 18.66011,5.17926 12.829178,2.58313 35.049892,12.98846 47.552652,22.26751 9.50161,7.0517 24.29411,23.9726 28.85274,33.00415 2.71128,5.37158 2.66458,5.84381 -0.58024,5.86933 -1.94076,0.0153 -5.3172,0.42132 -7.50317,0.90222 -2.18596,0.4809 -9.45758,-0.3681 -16.15916,-1.88666 z m 487.63245,1.5517 c -3.00574,-0.47608 -5.46491,-1.32861 -5.46491,-1.89472 0,-4.04516 12.15381,-20.71716 21.62275,-29.66101 13.07446,-12.34936 39.90002,-26.84112 55.97753,-30.24017 5.95759,-1.25958 14.75177,-3.61041 19.54267,-5.22412 10.32226,-3.47681 12.55383,-2.4574 5.29199,2.41742 -2.87158,1.92761 -8.29864,8.18512 -12.06024,13.90546 -11.62451,17.67804 -17.97455,23.74035 -42.39142,40.47082 -9.2038,6.30646 -32.25769,11.85126 -42.51837,10.22632 z M 134.83639,673.22516 c -5.1529,-6.1676 -7.61762,-11.89716 -10.10312,-23.48596 -1.80815,-8.43054 -3.28754,-18.86603 -3.28754,-23.19013 0,-11.32177 7.25431,-45.79541 11.73798,-55.7807 3.7732,-8.40313 3.82746,-8.43579 4.00097,-2.4107 0.0968,3.35937 3.29048,18.93451 7.09716,34.61151 4.33615,17.8573 6.93084,33.49859 6.94689,41.87689 0.0254,13.22998 -4.38867,33.25189 -7.80802,35.41699 -0.97277,0.61597 -4.83571,-2.55108 -8.58432,-7.0379 z m 463.81473,2.43683 c -8.04864,-20.83521 -7.74182,-34.4563 1.6377,-72.69281 3.2962,-13.43744 6.00458,-26.8971 6.01855,-29.9104 0.0829,-17.8017 8.80268,2.3089 13.9682,32.21527 4.96497,28.7453 -1.46966,62.23834 -13.74328,71.53516 l -5.75421,4.35858 -2.12696,-5.5058 z M 81.978309,618.13776 C 67.731902,612.95459 53.464298,601.47266 44.955779,588.34369 41.117938,582.42176 32.64767,566.55152 26.132958,553.0766 l -11.844939,-24.49994 9.36271,5.51514 c 5.1495,3.03332 14.589481,9.23547 20.977772,13.78259 6.388268,4.54712 14.751308,10.21784 18.584499,12.60175 14.38821,8.94794 30.71104,35.03577 33.632336,53.75262 1.475464,9.45319 0.834717,9.62165 -14.867027,3.909 z m 564.099451,1.05353 c 0,-1.71582 2.8078,-10.57898 6.2395,-19.69599 7.02344,-18.65905 16.31824,-30.41369 33.27234,-42.07824 15.50122,-10.66498 40.78247,-26.71088 42.09637,-26.71839 2.09729,-0.0121 -23.94598,51.85059 -30.83929,61.41345 -8.06653,11.19043 -21.40198,21.08307 -35.57495,26.39045 -12.34485,4.62286 -15.19397,4.75201 -15.19397,0.68872 z M 95.804351,592.84979 c -5.348053,-14.6444 -5.413429,-33.16339 -0.178429,-50.52801 4.257317,-14.12146 29.772348,-56.50333 29.676998,-49.29507 -0.31342,23.69729 -4.28445,71.21554 -6.57063,78.62619 -3.90094,12.64483 -9.90974,24.40728 -14.76753,28.90814 -3.93004,3.64123 -4.059083,3.51935 -8.160409,-7.71125 z M 639.5874,600.4242 c -4.79889,-5.45935 -12.5935,-22.79859 -15.17779,-33.76307 -2.03083,-8.61633 -6.58802,-74.76391 -5.25122,-76.22174 1.48687,-1.62161 25.4458,39.00574 29.14312,49.41834 6.12165,17.23987 6.06244,41.18213 -0.13458,54.45856 -2.48273,5.31897 -4.72412,9.67089 -4.9809,9.67089 -0.25671,0 -1.87609,-1.60333 -3.59863,-3.56298 z M 59.452888,527.42456 C 41.281639,515.16449 31.021829,494.44718 25.17551,458.20957 c -1.644171,-10.1912 -3.63028,-20.26923 -4.413601,-22.39569 -1.09268,-2.9664 0.24473,-2.44471 5.746181,2.2416 3.94368,3.35935 9.356068,7.6583 12.027519,9.55323 8.363609,5.93246 29.678646,38.43615 33.574512,51.1983 4.403465,14.42517 4.957397,35.95709 0.925018,35.95709 -1.487213,0 -7.599243,-3.30273 -13.582253,-7.33954 z m 609.151662,-7.81427 c 1.47205,-17.84149 6.06153,-31.25964 15.40668,-45.04446 6.99011,-10.31085 36.9516,-41.60028 39.83484,-41.60028 0.8927,0 0.74109,2.37655 -0.33679,5.28122 -1.07801,2.90472 -3.21588,13.21179 -4.75098,22.90469 -5.39697,34.07694 -16.76276,55.93173 -34.83502,66.98288 -16.09461,9.8418 -16.80164,9.44836 -15.31873,-8.52405 z M 80.658684,509.62113 c -0.902634,-7.40149 -0.295387,-15.06665 1.895126,-23.92267 5.489021,-22.19132 11.578667,-32.28549 30.91543,-51.24521 9.852,-9.65988 17.9127,-17.09616 17.9127,-16.52502 0,0.57113 -1.42991,5.7915 -3.17766,11.60083 -9.67395,32.15597 -15.72227,49.78863 -19.29441,56.24905 -5.48765,9.92483 -23.678768,34.73422 -25.468327,34.73422 -0.800072,0 -2.052361,-4.90106 -2.78286,-10.8912 z m 571.855476,1.05386 c -16.11908,-19.58505 -24.7923,-39.50671 -39.15039,-89.92526 l -1.44946,-5.08994 4.93219,5.08994 c 2.71276,2.79947 11.65899,11.79214 19.88049,19.9837 12.73657,12.69013 15.74371,17.05802 20.32483,29.52158 5.71667,15.55307 8.42047,38.01474 5.51263,45.7962 -1.69873,4.54584 -2.02991,4.36865 -10.05029,-5.37622 z M 66.6203,443.36746 c -15.861301,-9.9093 -22.195511,-31.86392 -19.69899,-68.27725 0.850159,-12.40002 1.567791,-25.45047 1.594749,-29.00097 0.04763,-6.27582 0.23772,-6.13416 6.82951,5.0899 3.729271,6.34998 8.018692,12.95081 9.532063,14.66855 4.086937,4.63885 11.932686,23.86774 14.796684,36.26474 2.517151,10.89578 1.894707,22.34073 -2.026489,37.26001 -2.369629,9.01593 -2.762817,9.15836 -11.027527,3.99503 z m 600.90478,-0.73104 c -1.61291,-2.90949 -2.5448,-12.38092 -2.55395,-25.95862 -0.0136,-20.02826 0.39123,-22.21308 6.41394,-34.61151 3.53577,-7.2786 10.33496,-19.40784 15.10944,-26.95383 l 8.68084,-13.72003 1.7038,19.82794 c 2.99573,34.862 0.8551,54.29214 -7.74689,70.31882 -3.52679,6.57086 -13.91412,15.67816 -17.88177,15.67816 -0.65229,0 -2.32874,-2.0614 -3.72541,-4.58093 z M 85.675376,429.79517 c 0,-17.21411 9.870705,-36.08332 26.917614,-51.45648 7.17725,-6.47263 42.01916,-26.81199 45.92962,-26.81199 0.58641,0 -1.75365,3.4357 -5.20018,7.63492 -3.44656,4.19916 -11.64218,15.88056 -18.21248,25.95859 -13.1597,20.18539 -26.15459,34.88211 -38.86279,43.95236 -10.122238,7.22452 -10.571785,7.25525 -10.571785,0.7226 z m 563.347754,-0.15143 c -11.78076,-7.97607 -28.58282,-25.18649 -32.86896,-33.66766 -5.86017,-11.59601 -15.89245,-26.44046 -23.12011,-34.21015 -3.61548,-3.8866 -6.57355,-7.84051 -6.57355,-8.78653 0,-0.94598 9.00171,3.10291 20.00372,8.99756 15.68317,8.40265 22.75141,13.70157 32.72492,24.53333 12.67877,13.76971 15.52057,19.77182 19.82617,41.87432 1.56073,8.012 0.22955,8.17975 -9.99219,1.25913 z M 88.287581,361.31659 C 75.41902,338.97116 75.916998,324.44889 91.13085,278.40271 l 5.661385,-17.13476 6.718005,20.87942 c 5.29348,16.452 6.71308,24.18674 6.69466,36.4765 -0.0256,17.11359 -5.40191,34.93689 -13.418723,44.48551 l -4.42849,5.27469 -4.070107,-7.06748 z m 560.425739,4.16196 c -1.19037,-1.51471 -4.7295,-7.79303 -7.86487,-13.95184 -5.30133,-10.41376 -5.69159,-12.76603 -5.57318,-33.59354 0.11358,-19.98758 0.78808,-24.147 6.27282,-38.68344 3.71259,-9.83945 6.60425,-15.07871 7.30408,-13.23383 8.7063,22.9512 17.02057,53.91437 17.06397,63.54773 0.0387,8.60269 -6.44556,27.79682 -11.58905,34.30448 -2.82355,3.57244 -3.84229,3.86468 -5.61377,1.61044 z M 108.68505,353.05368 c 6.84402,-22.11215 35.12511,-43.24463 68.73804,-51.36303 19.75733,-4.77192 21.14893,-4.0322 9.41195,5.00305 -5.78875,4.45624 -13.7033,11.14886 -17.58791,14.87259 -16.6368,15.94754 -49.10076,35.9974 -58.36833,36.04843 -2.84301,0.0157 -3.30986,-0.95493 -2.19375,-4.56104 z m 518.70795,3.11774 c -7.07342,-1.85388 -27.9812,-14.6929 -38.94525,-23.91538 -6.01141,-5.05658 -17.36316,-14.44555 -25.22613,-20.86444 -7.86298,-6.41888 -13.99213,-11.98239 -13.62024,-12.36337 1.87542,-1.92139 26.93475,4.66293 41.46704,10.89542 18.63452,7.99185 33.91327,21.06527 40.81354,34.92248 6.30371,12.65936 5.76709,14.01334 -4.48896,11.32529 z M 125.80864,289.93857 c -3.00683,-14.19635 -1.24229,-31.27731 4.4371,-42.95158 2.80751,-5.77097 10.84433,-17.62276 17.85963,-26.33736 l 12.7551,-15.84474 1.38902,13.28859 c 3.04668,29.14709 -3.92868,53.38513 -20.09002,69.80914 -5.78487,5.87888 -11.41797,10.68881 -12.51802,10.68881 -1.10004,0 -2.82483,-3.8938 -3.83281,-8.65286 z m 478.02076,-0.32828 c -5.57525,-5.26803 -11.6817,-13.82748 -14.87268,-20.84701 -4.84399,-10.65601 -5.48803,-14.69446 -6.12042,-38.37686 l -0.70672,-26.46764 7.63037,8.9765 c 22.11902,26.02118 28.13397,37.252 29.78643,55.61595 1.09961,12.22003 -1.78283,30.10553 -4.84429,30.0585 -0.77759,-0.0119 -5.67029,-4.04367 -10.87269,-8.95944 z m -448.31395,-7.4443 c 16.97904,-16.45938 33.98029,-22.28253 64.89341,-22.22681 21.85026,0.0394 25.72728,2.15671 12.92883,7.06067 -5.25191,2.01239 -16.70303,7.28519 -25.4469,11.71738 -17.41995,8.83001 -35.90543,13.67627 -52.37534,13.73098 l -10.64328,0.0353 10.64328,-10.31756 z M 565.59448,289.59 c -6.55792,-1.37204 -20.41895,-6.64758 -30.80231,-11.72348 -10.3833,-5.07587 -22.2232,-10.45755 -26.31085,-11.95929 -10.70703,-3.93356 -5.69003,-5.93121 14.98871,-5.96805 31.77002,-0.0566 51.91339,7.34192 68.84521,25.28641 l 6.84839,7.25796 -10.82287,-0.19946 c -5.95258,-0.10971 -16.18842,-1.32205 -22.74628,-2.69409 z M 210.3529,247.77487 c -4.11078,-0.81672 -8.03879,-2.06353 -8.72896,-2.77061 -2.25389,-2.30911 3.21067,-6.95534 13.78159,-11.71781 15.87128,-7.15042 40.56712,-6.70222 63.52916,1.15299 9.56363,3.27167 17.3884,6.67573 17.3884,7.56464 0,0.88887 -3.35349,1.62374 -7.45215,1.63307 -4.09869,0.009 -17.28903,1.36567 -29.31186,3.01419 -23.32924,3.19881 -37.1705,3.51483 -49.20618,1.12353 z m 281.71356,-0.0414 c -6.55789,-0.9137 -19.34466,-2.35152 -28.41503,-3.19523 -9.07038,-0.84368 -15.77732,-2.24995 -14.90433,-3.12504 3.35614,-3.36411 32.09079,-11.9 44.41376,-13.19348 14.91619,-1.56569 34.52682,2.65999 43.82522,9.44336 6.6239,4.83229 7.17639,6.99791 2.27741,8.92665 -5.68103,2.23662 -34.36402,2.93168 -47.19702,1.14374 z M 182.18168,240.3519 c -4.35086,-17.76033 8.67873,-39.78556 33.84348,-57.20903 6.45595,-4.46989 13.65614,-9.16314 16.00041,-10.42942 l 4.26236,-2.30231 -3.5437,14.11455 c -4.98642,19.86075 -10.58838,30.67122 -22.10561,42.65844 -8.15411,8.48688 -22.37085,18.4721 -26.30012,18.4721 -0.47157,0 -1.44211,-2.38698 -2.15682,-5.30432 z m 368.30538,1.24283 c -9.33924,-5.05015 -27.2829,-25.23294 -31.88465,-35.86346 -3.80169,-8.78226 -10.43255,-33.26479 -9.30661,-34.36186 0.36072,-0.35141 7.13944,3.66168 15.06382,8.91801 16.03295,10.63481 33.31225,30.01624 36.49108,40.9303 2.41797,8.30164 1.66968,22.847 -1.21801,23.67682 -1.09296,0.31409 -5.2085,-1.17082 -9.14563,-3.29981 z M 245.72982,204.42778 c 4.1447,-19.71803 14.40296,-27.82977 45.62516,-36.07802 7.65088,-2.02122 15.56604,-4.36953 17.58923,-5.21844 6.9773,-2.92772 -2.07117,10.8341 -17.5516,26.69414 -14.87107,15.23571 -26.51557,21.21922 -41.2947,21.21922 -5.4577,0 -5.6862,-0.34605 -4.36809,-6.6169 z m 231.56763,3.26405 c -4.84396,-1.73712 -12.34289,-6.04527 -16.66424,-9.57366 -7.37073,-6.01821 -29.69684,-34.04754 -28.27778,-35.50141 0.357,-0.36574 4.99543,0.71431 10.30762,2.40009 5.3122,1.68579 15.34552,4.71505 22.2963,6.7317 19.35397,5.61528 34.06247,20.79715 34.06247,35.1588 0,3.33037 -1.25968,4.11838 -6.45853,4.04015 -3.55222,-0.0535 -10.42182,-1.5185 -15.26584,-3.25567 z"
             inkscape:connector-curvature="0"
             style="fill:#052957;fill-opacity:1;stroke:#06245a;stroke-width:1.01500404;stroke-opacity:1" />
        </g>
      </g>
    </g>
  </g>
</svg>
